{
  "version": "1.1.6",
  "modules": [
    {
      "id": 1,
      "plugin": "Core",
      "version": "1.1.6",
      "model": "AudioInterface",
      "params": [],
      "data": {
        "audio": {
          "driver": 7,
          "deviceName": "Focusrite USB ASIO",
          "offset": 0,
          "maxChannels": 8,
          "sampleRate": 44100,
          "blockSize": 256
        }
      },
      "pos": [
        212,
        0
      ]
    },
    {
      "id": 10,
      "plugin": "AudibleInstruments",
      "version": "1.5.0",
      "model": "Braids",
      "params": [
        {
          "id": 0,
          "value": 0.0
        },
        {
          "id": 1,
          "value": -1.0
        },
        {
          "id": 2,
          "value": 0.0
        },
        {
          "id": 3,
          "value": 0.5
        },
        {
          "id": 4,
          "value": 0.0
        },
        {
          "id": 5,
          "value": 0.5
        },
        {
          "id": 6,
          "value": 0.547500014
        }
      ],
      "leftModuleId": 15,
      "rightModuleId": 27,
      "data": {
        "settings": [
          25,
          0,
          0,
          0,
          0,
          0,
          0,
          0,
          0,
          0,
          0,
          0,
          0,
          0,
          0,
          0,
          0,
          0,
          0,
          0
        ],
        "lowCpu": false
      },
      "pos": [
        120,
        1
      ]
    },
    {
      "id": 11,
      "plugin": "AudibleInstruments",
      "version": "1.5.0",
      "model": "Braids",
      "params": [
        {
          "id": 0,
          "value": 0.0
        },
        {
          "id": 1,
          "value": -1.0
        },
        {
          "id": 2,
          "value": 0.0
        },
        {
          "id": 3,
          "value": 0.5
        },
        {
          "id": 4,
          "value": 0.0
        },
        {
          "id": 5,
          "value": 0.5
        },
        {
          "id": 6,
          "value": 0.547500014
        }
      ],
      "leftModuleId": 91,
      "rightModuleId": 13,
      "data": {
        "settings": [
          25,
          0,
          0,
          0,
          0,
          0,
          0,
          0,
          0,
          0,
          0,
          0,
          0,
          0,
          0,
          0,
          0,
          0,
          0,
          0
        ],
        "lowCpu": false
      },
      "pos": [
        104,
        2
      ]
    },
    {
      "id": 12,
      "plugin": "Fundamental",
      "version": "1.4.0",
      "model": "Scope",
      "params": [
        {
          "id": 0,
          "value": 3.0
        },
        {
          "id": 1,
          "value": 0.0
        },
        {
          "id": 2,
          "value": 3.0
        },
        {
          "id": 3,
          "value": 0.0
        },
        {
          "id": 4,
          "value": 7.79000092
        },
        {
          "id": 5,
          "value": 0.0
        },
        {
          "id": 6,
          "value": 0.0
        },
        {
          "id": 7,
          "value": 0.0
        }
      ],
      "leftModuleId": 98,
      "rightModuleId": 9,
      "data": {
        "lissajous": 0,
        "external": 0
      },
      "pos": [
        44,
        0
      ]
    },
    {
      "id": 13,
      "plugin": "AudibleInstruments",
      "version": "1.5.0",
      "model": "Braids",
      "params": [
        {
          "id": 0,
          "value": 0.0
        },
        {
          "id": 1,
          "value": -1.0
        },
        {
          "id": 2,
          "value": 0.0
        },
        {
          "id": 3,
          "value": 0.5
        },
        {
          "id": 4,
          "value": 0.0
        },
        {
          "id": 5,
          "value": 0.5
        },
        {
          "id": 6,
          "value": 0.547500014
        }
      ],
      "leftModuleId": 11,
      "rightModuleId": 74,
      "data": {
        "settings": [
          25,
          0,
          0,
          0,
          0,
          0,
          0,
          0,
          0,
          0,
          0,
          0,
          0,
          0,
          0,
          0,
          0,
          0,
          0,
          0
        ],
        "lowCpu": false
      },
      "pos": [
        120,
        2
      ]
    },
    {
      "id": 15,
      "plugin": "AudibleInstruments",
      "version": "1.5.0",
      "model": "Braids",
      "params": [
        {
          "id": 0,
          "value": 0.0
        },
        {
          "id": 1,
          "value": -1.0
        },
        {
          "id": 2,
          "value": 0.0
        },
        {
          "id": 3,
          "value": 0.5
        },
        {
          "id": 4,
          "value": 0.0
        },
        {
          "id": 5,
          "value": 0.5
        },
        {
          "id": 6,
          "value": 0.547500074
        }
      ],
      "rightModuleId": 10,
      "data": {
        "settings": [
          25,
          0,
          0,
          0,
          0,
          0,
          0,
          0,
          0,
          0,
          0,
          0,
          0,
          0,
          0,
          0,
          0,
          0,
          0,
          0
        ],
        "lowCpu": false
      },
      "pos": [
        104,
        1
      ]
    },
    {
      "id": 17,
      "plugin": "AudibleInstruments",
      "version": "1.5.0",
      "model": "Braids",
      "params": [
        {
          "id": 0,
          "value": -0.213
        },
        {
          "id": 1,
          "value": -3.18400002
        },
        {
          "id": 2,
          "value": 0.0
        },
        {
          "id": 3,
          "value": 0.5
        },
        {
          "id": 4,
          "value": 0.0
        },
        {
          "id": 5,
          "value": 0.5
        },
        {
          "id": 6,
          "value": 0.524999857
        }
      ],
      "leftModuleId": 59,
      "data": {
        "settings": [
          24,
          0,
          0,
          0,
          0,
          0,
          0,
          0,
          0,
          0,
          0,
          0,
          0,
          0,
          0,
          0,
          0,
          0,
          0,
          0
        ],
        "lowCpu": false
      },
      "pos": [
        120,
        3
      ]
    },
    {
      "id": 23,
      "plugin": "Fundamental",
      "version": "1.4.0",
      "model": "Scope",
      "params": [
        {
          "id": 0,
          "value": 0.0
        },
        {
          "id": 1,
          "value": 0.0
        },
        {
          "id": 2,
          "value": 0.0
        },
        {
          "id": 3,
          "value": 0.0
        },
        {
          "id": 4,
          "value": 8.08500099
        },
        {
          "id": 5,
          "value": 0.0
        },
        {
          "id": 6,
          "value": 0.0
        },
        {
          "id": 7,
          "value": 0.0
        }
      ],
      "leftModuleId": 41,
      "rightModuleId": 24,
      "data": {
        "lissajous": 0,
        "external": 0
      },
      "pos": [
        177,
        1
      ]
    },
    {
      "id": 24,
      "plugin": "Fundamental",
      "version": "1.4.0",
      "model": "Scope",
      "params": [
        {
          "id": 0,
          "value": 0.0
        },
        {
          "id": 1,
          "value": 0.0
        },
        {
          "id": 2,
          "value": 0.0
        },
        {
          "id": 3,
          "value": 0.0
        },
        {
          "id": 4,
          "value": 8.45000076
        },
        {
          "id": 5,
          "value": 0.0
        },
        {
          "id": 6,
          "value": 0.0
        },
        {
          "id": 7,
          "value": 0.0
        }
      ],
      "leftModuleId": 23,
      "data": {
        "lissajous": 0,
        "external": 0
      },
      "pos": [
        190,
        1
      ]
    },
    {
      "id": 25,
      "plugin": "MindMeldModular",
      "version": "1.1.14",
      "model": "MixMaster",
      "params": [
        {
          "id": 0,
          "value": 0.77485162
        },
        {
          "id": 1,
          "value": 0.532946706
        },
        {
          "id": 2,
          "value": 0.600982308
        },
        {
          "id": 3,
          "value": 0.608541846
        },
        {
          "id": 4,
          "value": 0.376339346
        },
        {
          "id": 5,
          "value": 1.0
        },
        {
          "id": 6,
          "value": 1.0
        },
        {
          "id": 7,
          "value": 1.0
        },
        {
          "id": 8,
          "value": 0.78455323
        },
        {
          "id": 9,
          "value": 1.0
        },
        {
          "id": 10,
          "value": 1.0
        },
        {
          "id": 11,
          "value": 1.0
        },
        {
          "id": 12,
          "value": 1.0
        },
        {
          "id": 13,
          "value": 1.0
        },
        {
          "id": 14,
          "value": 1.0
        },
        {
          "id": 15,
          "value": 0.527529061
        },
        {
          "id": 16,
          "value": 0.9508636
        },
        {
          "id": 17,
          "value": 1.0
        },
        {
          "id": 18,
          "value": 1.0
        },
        {
          "id": 19,
          "value": 1.0
        },
        {
          "id": 20,
          "value": 0.453499913
        },
        {
          "id": 21,
          "value": 0.52850008
        },
        {
          "id": 22,
          "value": 0.458000004
        },
        {
          "id": 23,
          "value": 0.540500164
        },
        {
          "id": 24,
          "value": 0.47299999
        },
        {
          "id": 25,
          "value": 0.5
        },
        {
          "id": 26,
          "value": 0.5
        },
        {
          "id": 27,
          "value": 0.5
        },
        {
          "id": 28,
          "value": 0.436999857
        },
        {
          "id": 29,
          "value": 0.552500308
        },
        {
          "id": 30,
          "value": 0.5
        },
        {
          "id": 31,
          "value": 0.5
        },
        {
          "id": 32,
          "value": 0.5
        },
        {
          "id": 33,
          "value": 0.5
        },
        {
          "id": 34,
          "value": 0.5
        },
        {
          "id": 35,
          "value": 0.5
        },
        {
          "id": 36,
          "value": 0.5
        },
        {
          "id": 37,
          "value": 0.5
        },
        {
          "id": 38,
          "value": 0.5
        },
        {
          "id": 39,
          "value": 0.5
        },
        {
          "id": 40,
          "value": 0.0
        },
        {
          "id": 41,
          "value": 0.0
        },
        {
          "id": 42,
          "value": 0.0
        },
        {
          "id": 43,
          "value": 0.0
        },
        {
          "id": 44,
          "value": 0.0
        },
        {
          "id": 45,
          "value": 0.0
        },
        {
          "id": 46,
          "value": 0.0
        },
        {
          "id": 47,
          "value": 0.0
        },
        {
          "id": 48,
          "value": 0.0
        },
        {
          "id": 49,
          "value": 0.0
        },
        {
          "id": 50,
          "value": 0.0
        },
        {
          "id": 51,
          "value": 0.0
        },
        {
          "id": 52,
          "value": 0.0
        },
        {
          "id": 53,
          "value": 0.0
        },
        {
          "id": 54,
          "value": 0.0
        },
        {
          "id": 55,
          "value": 0.0
        },
        {
          "id": 56,
          "value": 0.0
        },
        {
          "id": 57,
          "value": 0.0
        },
        {
          "id": 58,
          "value": 0.0
        },
        {
          "id": 59,
          "value": 0.0
        },
        {
          "id": 60,
          "value": 0.0
        },
        {
          "id": 61,
          "value": 0.0
        },
        {
          "id": 62,
          "value": 0.0
        },
        {
          "id": 63,
          "value": 0.0
        },
        {
          "id": 64,
          "value": 0.0
        },
        {
          "id": 65,
          "value": 0.0
        },
        {
          "id": 66,
          "value": 0.0
        },
        {
          "id": 67,
          "value": 0.0
        },
        {
          "id": 68,
          "value": 0.0
        },
        {
          "id": 69,
          "value": 0.0
        },
        {
          "id": 70,
          "value": 0.0
        },
        {
          "id": 71,
          "value": 0.0
        },
        {
          "id": 72,
          "value": 0.0
        },
        {
          "id": 73,
          "value": 0.0
        },
        {
          "id": 74,
          "value": 0.0
        },
        {
          "id": 75,
          "value": 0.0
        },
        {
          "id": 76,
          "value": 0.0
        },
        {
          "id": 77,
          "value": 0.0
        },
        {
          "id": 78,
          "value": 0.0
        },
        {
          "id": 79,
          "value": 0.0
        },
        {
          "id": 80,
          "value": 0.0
        },
        {
          "id": 81,
          "value": 0.0
        },
        {
          "id": 82,
          "value": 0.0
        },
        {
          "id": 83,
          "value": 0.718154967
        },
        {
          "id": 84,
          "value": 1.0
        },
        {
          "id": 85,
          "value": 1.0
        },
        {
          "id": 86,
          "value": 1.0
        },
        {
          "id": 87,
          "value": 1.0
        },
        {
          "id": 88,
          "value": 0.0
        },
        {
          "id": 89,
          "value": 0.0
        },
        {
          "id": 90,
          "value": 0.0
        },
        {
          "id": 91,
          "value": 0.0
        },
        {
          "id": 92,
          "value": 0.0
        },
        {
          "id": 93,
          "value": 0.0
        },
        {
          "id": 94,
          "value": 0.0
        },
        {
          "id": 95,
          "value": 0.0
        },
        {
          "id": 96,
          "value": 0.0
        },
        {
          "id": 97,
          "value": 0.0
        },
        {
          "id": 98,
          "value": 0.0
        },
        {
          "id": 99,
          "value": 0.0
        },
        {
          "id": 100,
          "value": 13.0
        },
        {
          "id": 101,
          "value": 13.0
        },
        {
          "id": 102,
          "value": 13.0
        },
        {
          "id": 103,
          "value": 13.0
        },
        {
          "id": 104,
          "value": 13.0
        },
        {
          "id": 105,
          "value": 13.0
        },
        {
          "id": 106,
          "value": 13.0
        },
        {
          "id": 107,
          "value": 13.0
        },
        {
          "id": 108,
          "value": 13.0
        },
        {
          "id": 109,
          "value": 13.0
        },
        {
          "id": 110,
          "value": 13.0
        },
        {
          "id": 111,
          "value": 13.0
        },
        {
          "id": 112,
          "value": 13.0
        },
        {
          "id": 113,
          "value": 13.0
        },
        {
          "id": 114,
          "value": 13.0
        },
        {
          "id": 115,
          "value": 13.0
        },
        {
          "id": 116,
          "value": 20010.0
        },
        {
          "id": 117,
          "value": 20010.0
        },
        {
          "id": 118,
          "value": 20010.0
        },
        {
          "id": 119,
          "value": 20010.0
        },
        {
          "id": 120,
          "value": 20010.0
        },
        {
          "id": 121,
          "value": 20010.0
        },
        {
          "id": 122,
          "value": 20010.0
        },
        {
          "id": 123,
          "value": 20010.0
        },
        {
          "id": 124,
          "value": 20010.0
        },
        {
          "id": 125,
          "value": 20010.0
        },
        {
          "id": 126,
          "value": 20010.0
        },
        {
          "id": 127,
          "value": 20010.0
        },
        {
          "id": 128,
          "value": 20010.0
        },
        {
          "id": 129,
          "value": 20010.0
        },
        {
          "id": 130,
          "value": 20010.0
        },
        {
          "id": 131,
          "value": 20010.0
        },
        {
          "id": 132,
          "value": 13.0
        },
        {
          "id": 133,
          "value": 13.0
        },
        {
          "id": 134,
          "value": 13.0
        },
        {
          "id": 135,
          "value": 13.0
        },
        {
          "id": 136,
          "value": 20010.0
        },
        {
          "id": 137,
          "value": 20010.0
        },
        {
          "id": 138,
          "value": 20010.0
        },
        {
          "id": 139,
          "value": 20010.0
        }
      ],
      "leftModuleId": 86,
      "data": {
        "trackLabels": "-01--02--03--04--05--06--07--08--09--10--11--12--13--14--15--16-GRP1GRP2GRP3GRP4",
        "panLawMono": 1,
        "panLawStereo": 1,
        "directOutsMode": 3,
        "directOutsSkipGroupedTracks": 0,
        "auxSendsMode": 3,
        "groupsControlTrackSendLevels": 0,
        "auxReturnsMutedWhenMainSolo": 0,
        "auxReturnsSolosMuteDry": 0,
        "chainMode": 0,
        "colorAndCloak": 117440512,
        "symmetricalFade": false,
        "fadeCvOutsWithVolCv": false,
        "linkBitMask": 0,
        "filterPos": 1,
        "groupedAuxReturnFeedbackProtection": 1,
        "ecoMode": 65535,
        "faders": [
          0.77485162,
          0.532946706,
          0.600982308,
          0.608541846,
          0.376339346,
          1.0,
          1.0,
          1.0,
          0.78455323,
          1.0,
          1.0,
          1.0,
          1.0,
          1.0,
          1.0,
          0.527529061,
          0.9508636,
          1.0,
          1.0,
          1.0
        ],
        "momentaryCvButtons": 1,
        "masterFaderScalesSends": 0,
        "linearVolCvInputs": 0,
        "id_t0_gainAdjust": 1.0,
        "id_t0_fadeRate": 0.0,
        "id_t0_fadeProfile": 0.0,
        "id_t0_directOutsMode": 3,
        "id_t0_auxSendsMode": 3,
        "id_t0_panLawStereo": 1,
        "id_t0_vuColorThemeLocal": 0,
        "id_t0_filterPos": 1,
        "id_t0_dispColorLocal": 0,
        "id_t0_polyStereo": 0,
        "id_t0_panCvLevel": 1.0,
        "id_t0_stereoWidth": 1.0,
        "id_t0_invertInput": 0,
        "id_t1_gainAdjust": 1.0,
        "id_t1_fadeRate": 0.0,
        "id_t1_fadeProfile": 0.0,
        "id_t1_directOutsMode": 3,
        "id_t1_auxSendsMode": 3,
        "id_t1_panLawStereo": 1,
        "id_t1_vuColorThemeLocal": 0,
        "id_t1_filterPos": 1,
        "id_t1_dispColorLocal": 0,
        "id_t1_polyStereo": 0,
        "id_t1_panCvLevel": 1.0,
        "id_t1_stereoWidth": 1.0,
        "id_t1_invertInput": 0,
        "id_t2_gainAdjust": 1.0,
        "id_t2_fadeRate": 0.0,
        "id_t2_fadeProfile": 0.0,
        "id_t2_directOutsMode": 3,
        "id_t2_auxSendsMode": 3,
        "id_t2_panLawStereo": 1,
        "id_t2_vuColorThemeLocal": 0,
        "id_t2_filterPos": 1,
        "id_t2_dispColorLocal": 0,
        "id_t2_polyStereo": 0,
        "id_t2_panCvLevel": 1.0,
        "id_t2_stereoWidth": 1.0,
        "id_t2_invertInput": 0,
        "id_t3_gainAdjust": 1.0,
        "id_t3_fadeRate": 0.0,
        "id_t3_fadeProfile": 0.0,
        "id_t3_directOutsMode": 3,
        "id_t3_auxSendsMode": 3,
        "id_t3_panLawStereo": 1,
        "id_t3_vuColorThemeLocal": 0,
        "id_t3_filterPos": 1,
        "id_t3_dispColorLocal": 0,
        "id_t3_polyStereo": 0,
        "id_t3_panCvLevel": 1.0,
        "id_t3_stereoWidth": 1.0,
        "id_t3_invertInput": 0,
        "id_t4_gainAdjust": 1.0,
        "id_t4_fadeRate": 0.0,
        "id_t4_fadeProfile": 0.0,
        "id_t4_directOutsMode": 3,
        "id_t4_auxSendsMode": 3,
        "id_t4_panLawStereo": 1,
        "id_t4_vuColorThemeLocal": 0,
        "id_t4_filterPos": 1,
        "id_t4_dispColorLocal": 0,
        "id_t4_polyStereo": 0,
        "id_t4_panCvLevel": 1.0,
        "id_t4_stereoWidth": 1.0,
        "id_t4_invertInput": 0,
        "id_t5_gainAdjust": 1.0,
        "id_t5_fadeRate": 0.0,
        "id_t5_fadeProfile": 0.0,
        "id_t5_directOutsMode": 3,
        "id_t5_auxSendsMode": 3,
        "id_t5_panLawStereo": 1,
        "id_t5_vuColorThemeLocal": 0,
        "id_t5_filterPos": 1,
        "id_t5_dispColorLocal": 0,
        "id_t5_polyStereo": 0,
        "id_t5_panCvLevel": 1.0,
        "id_t5_stereoWidth": 1.0,
        "id_t5_invertInput": 0,
        "id_t6_gainAdjust": 1.0,
        "id_t6_fadeRate": 0.0,
        "id_t6_fadeProfile": 0.0,
        "id_t6_directOutsMode": 3,
        "id_t6_auxSendsMode": 3,
        "id_t6_panLawStereo": 1,
        "id_t6_vuColorThemeLocal": 0,
        "id_t6_filterPos": 1,
        "id_t6_dispColorLocal": 0,
        "id_t6_polyStereo": 0,
        "id_t6_panCvLevel": 1.0,
        "id_t6_stereoWidth": 1.0,
        "id_t6_invertInput": 0,
        "id_t7_gainAdjust": 1.0,
        "id_t7_fadeRate": 0.0,
        "id_t7_fadeProfile": 0.0,
        "id_t7_directOutsMode": 3,
        "id_t7_auxSendsMode": 3,
        "id_t7_panLawStereo": 1,
        "id_t7_vuColorThemeLocal": 0,
        "id_t7_filterPos": 1,
        "id_t7_dispColorLocal": 0,
        "id_t7_polyStereo": 0,
        "id_t7_panCvLevel": 1.0,
        "id_t7_stereoWidth": 1.0,
        "id_t7_invertInput": 0,
        "id_t8_gainAdjust": 1.0,
        "id_t8_fadeRate": 0.0,
        "id_t8_fadeProfile": 0.0,
        "id_t8_directOutsMode": 3,
        "id_t8_auxSendsMode": 3,
        "id_t8_panLawStereo": 1,
        "id_t8_vuColorThemeLocal": 0,
        "id_t8_filterPos": 1,
        "id_t8_dispColorLocal": 0,
        "id_t8_polyStereo": 0,
        "id_t8_panCvLevel": 1.0,
        "id_t8_stereoWidth": 1.0,
        "id_t8_invertInput": 0,
        "id_t9_gainAdjust": 1.0,
        "id_t9_fadeRate": 0.0,
        "id_t9_fadeProfile": 0.0,
        "id_t9_directOutsMode": 3,
        "id_t9_auxSendsMode": 3,
        "id_t9_panLawStereo": 1,
        "id_t9_vuColorThemeLocal": 0,
        "id_t9_filterPos": 1,
        "id_t9_dispColorLocal": 0,
        "id_t9_polyStereo": 0,
        "id_t9_panCvLevel": 1.0,
        "id_t9_stereoWidth": 1.0,
        "id_t9_invertInput": 0,
        "id_t10_gainAdjust": 1.0,
        "id_t10_fadeRate": 0.0,
        "id_t10_fadeProfile": 0.0,
        "id_t10_directOutsMode": 3,
        "id_t10_auxSendsMode": 3,
        "id_t10_panLawStereo": 1,
        "id_t10_vuColorThemeLocal": 0,
        "id_t10_filterPos": 1,
        "id_t10_dispColorLocal": 0,
        "id_t10_polyStereo": 0,
        "id_t10_panCvLevel": 1.0,
        "id_t10_stereoWidth": 1.0,
        "id_t10_invertInput": 0,
        "id_t11_gainAdjust": 1.0,
        "id_t11_fadeRate": 0.0,
        "id_t11_fadeProfile": 0.0,
        "id_t11_directOutsMode": 3,
        "id_t11_auxSendsMode": 3,
        "id_t11_panLawStereo": 1,
        "id_t11_vuColorThemeLocal": 0,
        "id_t11_filterPos": 1,
        "id_t11_dispColorLocal": 0,
        "id_t11_polyStereo": 0,
        "id_t11_panCvLevel": 1.0,
        "id_t11_stereoWidth": 1.0,
        "id_t11_invertInput": 0,
        "id_t12_gainAdjust": 1.0,
        "id_t12_fadeRate": 0.0,
        "id_t12_fadeProfile": 0.0,
        "id_t12_directOutsMode": 3,
        "id_t12_auxSendsMode": 3,
        "id_t12_panLawStereo": 1,
        "id_t12_vuColorThemeLocal": 0,
        "id_t12_filterPos": 1,
        "id_t12_dispColorLocal": 0,
        "id_t12_polyStereo": 0,
        "id_t12_panCvLevel": 1.0,
        "id_t12_stereoWidth": 1.0,
        "id_t12_invertInput": 0,
        "id_t13_gainAdjust": 1.0,
        "id_t13_fadeRate": 0.0,
        "id_t13_fadeProfile": 0.0,
        "id_t13_directOutsMode": 3,
        "id_t13_auxSendsMode": 3,
        "id_t13_panLawStereo": 1,
        "id_t13_vuColorThemeLocal": 0,
        "id_t13_filterPos": 1,
        "id_t13_dispColorLocal": 0,
        "id_t13_polyStereo": 0,
        "id_t13_panCvLevel": 1.0,
        "id_t13_stereoWidth": 1.0,
        "id_t13_invertInput": 0,
        "id_t14_gainAdjust": 1.0,
        "id_t14_fadeRate": 0.0,
        "id_t14_fadeProfile": 0.0,
        "id_t14_directOutsMode": 3,
        "id_t14_auxSendsMode": 3,
        "id_t14_panLawStereo": 1,
        "id_t14_vuColorThemeLocal": 0,
        "id_t14_filterPos": 1,
        "id_t14_dispColorLocal": 0,
        "id_t14_polyStereo": 0,
        "id_t14_panCvLevel": 1.0,
        "id_t14_stereoWidth": 1.0,
        "id_t14_invertInput": 0,
        "id_t15_gainAdjust": 1.0,
        "id_t15_fadeRate": 0.0,
        "id_t15_fadeProfile": 0.0,
        "id_t15_directOutsMode": 3,
        "id_t15_auxSendsMode": 3,
        "id_t15_panLawStereo": 1,
        "id_t15_vuColorThemeLocal": 0,
        "id_t15_filterPos": 1,
        "id_t15_dispColorLocal": 0,
        "id_t15_polyStereo": 0,
        "id_t15_panCvLevel": 1.0,
        "id_t15_stereoWidth": 1.0,
        "id_t15_invertInput": 0,
        "id_g0_fadeRate": 0.0,
        "id_g0_fadeProfile": 0.0,
        "id_g0_directOutsMode": 3,
        "id_g0_auxSendsMode": 3,
        "id_g0_panLawStereo": 1,
        "id_g0_vuColorThemeLocal": 0,
        "id_g0_filterPos": 1,
        "id_g0_dispColorLocal": 0,
        "id_g0_panCvLevel": 1.0,
        "id_g0_stereoWidth": 1.0,
        "id_g1_fadeRate": 0.0,
        "id_g1_fadeProfile": 0.0,
        "id_g1_directOutsMode": 3,
        "id_g1_auxSendsMode": 3,
        "id_g1_panLawStereo": 1,
        "id_g1_vuColorThemeLocal": 0,
        "id_g1_filterPos": 1,
        "id_g1_dispColorLocal": 0,
        "id_g1_panCvLevel": 1.0,
        "id_g1_stereoWidth": 1.0,
        "id_g2_fadeRate": 0.0,
        "id_g2_fadeProfile": 0.0,
        "id_g2_directOutsMode": 3,
        "id_g2_auxSendsMode": 3,
        "id_g2_panLawStereo": 1,
        "id_g2_vuColorThemeLocal": 0,
        "id_g2_filterPos": 1,
        "id_g2_dispColorLocal": 0,
        "id_g2_panCvLevel": 1.0,
        "id_g2_stereoWidth": 1.0,
        "id_g3_fadeRate": 0.0,
        "id_g3_fadeProfile": 0.0,
        "id_g3_directOutsMode": 3,
        "id_g3_auxSendsMode": 3,
        "id_g3_panLawStereo": 1,
        "id_g3_vuColorThemeLocal": 0,
        "id_g3_filterPos": 1,
        "id_g3_dispColorLocal": 0,
        "id_g3_panCvLevel": 1.0,
        "id_g3_stereoWidth": 1.0,
        "dcBlock": false,
        "clipping": 0,
        "fadeRate": 0.0,
        "fadeProfile": 0.0,
        "vuColorThemeLocal": 0,
        "dispColorLocal": 0,
        "chainOnly": 0,
        "dimGain": 0.251190007,
        "masterLabel": "MASTER"
      },
      "pos": [
        150,
        0
      ]
    },
    {
      "id": 26,
      "plugin": "AudibleInstruments",
      "version": "1.5.0",
      "model": "Veils",
      "params": [
        {
          "id": 0,
          "value": 1.0
        },
        {
          "id": 1,
          "value": 1.0
        },
        {
          "id": 2,
          "value": 1.0
        },
        {
          "id": 3,
          "value": 0.990999997
        },
        {
          "id": 4,
          "value": 1.0
        },
        {
          "id": 5,
          "value": 1.0
        },
        {
          "id": 6,
          "value": 1.0
        },
        {
          "id": 7,
          "value": 1.0
        }
      ],
      "leftModuleId": 70,
      "rightModuleId": 56,
      "pos": [
        92,
        3
      ]
    },
    {
      "id": 27,
      "plugin": "AudibleInstruments",
      "version": "1.5.0",
      "model": "Veils",
      "params": [
        {
          "id": 0,
          "value": 1.0
        },
        {
          "id": 1,
          "value": 1.0
        },
        {
          "id": 2,
          "value": 1.0
        },
        {
          "id": 3,
          "value": 1.0
        },
        {
          "id": 4,
          "value": 1.0
        },
        {
          "id": 5,
          "value": 1.0
        },
        {
          "id": 6,
          "value": 1.0
        },
        {
          "id": 7,
          "value": 1.0
        }
      ],
      "leftModuleId": 10,
      "rightModuleId": 92,
      "pos": [
        136,
        1
      ]
    },
    {
      "id": 34,
      "plugin": "ImpromptuModular",
      "version": "1.1.12",
      "model": "Clocked",
      "params": [
        {
          "id": 0,
          "value": 120.0
        },
        {
          "id": 1,
          "value": 5.0
        },
        {
          "id": 2,
          "value": 0.0
        },
        {
          "id": 3,
          "value": 0.0
        },
        {
          "id": 4,
          "value": 0.0
        },
        {
          "id": 5,
          "value": 0.0
        },
        {
          "id": 6,
          "value": 0.0
        },
        {
          "id": 7,
          "value": 0.0
        },
        {
          "id": 8,
          "value": 0.5
        },
        {
          "id": 9,
          "value": 0.5
        },
        {
          "id": 10,
          "value": 0.5
        },
        {
          "id": 11,
          "value": 0.5
        },
        {
          "id": 12,
          "value": 0.0
        },
        {
          "id": 13,
          "value": 0.0
        },
        {
          "id": 14,
          "value": 0.0
        },
        {
          "id": 15,
          "value": 0.0
        },
        {
          "id": 16,
          "value": 0.0
        },
        {
          "id": 17,
          "value": 0.0
        },
        {
          "id": 18,
          "value": 0.0
        },
        {
          "id": 19,
          "value": 0.0
        }
      ],
      "leftModuleId": 35,
      "rightModuleId": 73,
      "data": {
        "panelTheme": 0,
        "running": true,
        "displayDelayNoteMode": true,
        "bpmDetectionMode": false,
        "resetOnStartStop": 0,
        "ppqn": 4,
        "resetClockOutputsHigh": true,
        "momentaryRunInput": true,
        "clockMaster": false
      },
      "pos": [
        88,
        0
      ]
    },
    {
      "id": 35,
      "plugin": "AS",
      "version": "1.0.5",
      "model": "AtNuVrTr",
      "params": [
        {
          "id": 0,
          "value": 0.0
        },
        {
          "id": 1,
          "value": -0.930000186
        },
        {
          "id": 2,
          "value": 1.0
        },
        {
          "id": 3,
          "value": 0.840000033
        }
      ],
      "leftModuleId": 9,
      "rightModuleId": 34,
      "pos": [
        83,
        0
      ]
    },
    {
      "id": 37,
      "plugin": "RJModules",
      "version": "1.7.2",
      "model": "Euclidian",
      "params": [
        {
          "id": 0,
          "value": 5.0
        },
        {
          "id": 1,
          "value": 12.0
        },
        {
          "id": 2,
          "value": 0.0
        },
        {
          "id": 3,
          "value": 1.0
        }
      ],
      "leftModuleId": 90,
      "rightModuleId": 44,
      "data": {},
      "pos": [
        68,
        1
      ]
    },
    {
      "id": 40,
      "plugin": "Bogaudio",
      "version": "1.1.38",
      "model": "Bogaudio-Vish",
      "params": [
        {
          "id": 0,
          "value": 0.685349941
        },
        {
          "id": 1,
          "value": -0.337000012
        },
        {
          "id": 2,
          "value": 0.547722578
        },
        {
          "id": 3,
          "value": -0.870999932
        },
        {
          "id": 4,
          "value": 0.316227794
        },
        {
          "id": 5,
          "value": 1.0
        },
        {
          "id": 6,
          "value": 0.0
        }
      ],
      "rightModuleId": 41,
      "data": {
        "rise_shape_mode": "inverted",
        "fall_shape_mode": "on"
      },
      "pos": [
        167,
        1
      ]
    },
    {
      "id": 41,
      "plugin": "Bogaudio",
      "version": "1.1.38",
      "model": "Bogaudio-Vish",
      "params": [
        {
          "id": 0,
          "value": 0.581849992
        },
        {
          "id": 1,
          "value": -1.0
        },
        {
          "id": 2,
          "value": 0.547722578
        },
        {
          "id": 3,
          "value": -0.867999911
        },
        {
          "id": 4,
          "value": 0.316227794
        },
        {
          "id": 5,
          "value": 1.0
        },
        {
          "id": 6,
          "value": 0.0
        }
      ],
      "leftModuleId": 40,
      "rightModuleId": 23,
      "data": {
        "rise_shape_mode": "inverted",
        "fall_shape_mode": "on"
      },
      "pos": [
        172,
        1
      ]
    },
    {
      "id": 42,
      "plugin": "Bogaudio",
      "version": "1.1.38",
      "model": "Bogaudio-Vish",
      "params": [
        {
          "id": 0,
          "value": 0.610350013
        },
        {
          "id": 1,
          "value": -1.0
        },
        {
          "id": 2,
          "value": 0.547722578
        },
        {
          "id": 3,
          "value": -0.867999911
        },
        {
          "id": 4,
          "value": 0.316227794
        },
        {
          "id": 5,
          "value": 1.0
        },
        {
          "id": 6,
          "value": 0.0
        }
      ],
      "rightModuleId": 43,
      "data": {
        "rise_shape_mode": "inverted",
        "fall_shape_mode": "on"
      },
      "pos": [
        167,
        2
      ]
    },
    {
      "id": 43,
      "plugin": "Bogaudio",
      "version": "1.1.38",
      "model": "Bogaudio-Vish",
      "params": [
        {
          "id": 0,
          "value": 0.614850044
        },
        {
          "id": 1,
          "value": -1.0
        },
        {
          "id": 2,
          "value": 0.547722578
        },
        {
          "id": 3,
          "value": -0.867999911
        },
        {
          "id": 4,
          "value": 0.316227794
        },
        {
          "id": 5,
          "value": 1.0
        },
        {
          "id": 6,
          "value": 0.0
        }
      ],
      "leftModuleId": 42,
      "data": {
        "rise_shape_mode": "inverted",
        "fall_shape_mode": "on"
      },
      "pos": [
        172,
        2
      ]
    },
    {
      "id": 44,
      "plugin": "RJModules",
      "version": "1.7.2",
      "model": "Euclidian",
      "params": [
        {
          "id": 0,
          "value": 3.0
        },
        {
          "id": 1,
          "value": 15.0
        },
        {
          "id": 2,
          "value": 2.0
        },
        {
          "id": 3,
          "value": 1.0
        }
      ],
      "leftModuleId": 37,
      "data": {},
      "pos": [
        78,
        1
      ]
    },
    {
      "id": 45,
      "plugin": "RJModules",
      "version": "1.7.2",
      "model": "Euclidian",
      "params": [
        {
          "id": 0,
          "value": 6.0
        },
        {
          "id": 1,
          "value": 21.0
        },
        {
          "id": 2,
          "value": 9.0
        },
        {
          "id": 3,
          "value": 1.0
        }
      ],
      "rightModuleId": 46,
      "data": {},
      "pos": [
        68,
        2
      ]
    },
    {
      "id": 46,
      "plugin": "RJModules",
      "version": "1.7.2",
      "model": "Euclidian",
      "params": [
        {
          "id": 0,
          "value": 3.0
        },
        {
          "id": 1,
          "value": 7.0
        },
        {
          "id": 2,
          "value": 11.0
        },
        {
          "id": 3,
          "value": 1.0
        }
      ],
      "leftModuleId": 45,
      "rightModuleId": 91,
      "data": {},
      "pos": [
        78,
        2
      ]
    },
    {
      "id": 56,
      "plugin": "JW-Modules",
      "version": "1.0.30",
      "model": "Quantizer",
      "params": [
        {
          "id": 0,
          "value": 0.0
        },
        {
          "id": 1,
          "value": 14.0
        },
        {
          "id": 2,
          "value": 0.0
        }
      ],
      "leftModuleId": 26,
      "rightModuleId": 57,
      "data": {},
      "pos": [
        104,
        3
      ]
    },
    {
      "id": 57,
      "plugin": "JW-Modules",
      "version": "1.0.30",
      "model": "Quantizer",
      "params": [
        {
          "id": 0,
          "value": 0.0
        },
        {
          "id": 1,
          "value": 14.0
        },
        {
          "id": 2,
          "value": 0.0
        }
      ],
      "leftModuleId": 56,
      "rightModuleId": 58,
      "data": {},
      "pos": [
        108,
        3
      ]
    },
    {
      "id": 58,
      "plugin": "JW-Modules",
      "version": "1.0.30",
      "model": "Quantizer",
      "params": [
        {
          "id": 0,
          "value": 0.0
        },
        {
          "id": 1,
          "value": 14.0
        },
        {
          "id": 2,
          "value": 0.0
        }
      ],
      "leftModuleId": 57,
      "rightModuleId": 59,
      "data": {},
      "pos": [
        112,
        3
      ]
    },
    {
      "id": 59,
      "plugin": "JW-Modules",
      "version": "1.0.30",
      "model": "Quantizer",
      "params": [
        {
          "id": 0,
          "value": 0.0
        },
        {
          "id": 1,
          "value": 14.0
        },
        {
          "id": 2,
          "value": 0.0
        }
      ],
      "leftModuleId": 58,
      "rightModuleId": 17,
      "data": {},
      "pos": [
        116,
        3
      ]
    },
    {
      "id": 60,
      "plugin": "StellareModular",
      "version": "1.0.0",
      "model": "TuringMachine",
      "params": [
        {
          "id": 0,
          "value": 0.5
        },
        {
          "id": 1,
          "value": 0.5
        },
        {
          "id": 2,
          "value": 0.5
        },
        {
          "id": 3,
          "value": 0.5
        },
        {
          "id": 4,
          "value": 0.5
        },
        {
          "id": 5,
          "value": -0.218999997
        },
        {
          "id": 6,
          "value": 5.0
        },
        {
          "id": 7,
          "value": 0.5
        },
        {
          "id": 8,
          "value": 0.0
        },
        {
          "id": 9,
          "value": 0.0
        },
        {
          "id": 10,
          "value": 0.0
        },
        {
          "id": 11,
          "value": 0.0
        },
        {
          "id": 12,
          "value": 0.0
        }
      ],
      "leftModuleId": 89,
      "rightModuleId": 61,
      "data": {
        "pulses_mode": 0
      },
      "pos": [
        16,
        1
      ]
    },
    {
      "id": 61,
      "plugin": "StellareModular",
      "version": "1.0.0",
      "model": "TuringMachine",
      "params": [
        {
          "id": 0,
          "value": 0.5
        },
        {
          "id": 1,
          "value": 0.5
        },
        {
          "id": 2,
          "value": 0.5
        },
        {
          "id": 3,
          "value": 0.5
        },
        {
          "id": 4,
          "value": 0.5
        },
        {
          "id": 5,
          "value": 0.147
        },
        {
          "id": 6,
          "value": 4.0
        },
        {
          "id": 7,
          "value": 0.5
        },
        {
          "id": 8,
          "value": 0.0
        },
        {
          "id": 9,
          "value": 0.0
        },
        {
          "id": 10,
          "value": 0.0
        },
        {
          "id": 11,
          "value": 0.0
        },
        {
          "id": 12,
          "value": 0.0
        }
      ],
      "leftModuleId": 60,
      "rightModuleId": 90,
      "data": {
        "pulses_mode": 0
      },
      "pos": [
        34,
        1
      ]
    },
    {
      "id": 62,
      "plugin": "AS",
      "version": "1.0.5",
      "model": "AtNuVrTr",
      "params": [
        {
          "id": 0,
          "value": 0.0
        },
        {
          "id": 1,
          "value": 2.98999834
        },
        {
          "id": 2,
          "value": 0.0
        },
        {
          "id": 3,
          "value": 10.0
        }
      ],
      "leftModuleId": 95,
      "rightModuleId": 70,
      "pos": [
        84,
        3
      ]
    },
    {
      "id": 63,
      "plugin": "StellareModular",
      "version": "1.0.0",
      "model": "TuringMachine",
      "params": [
        {
          "id": 0,
          "value": 0.5
        },
        {
          "id": 1,
          "value": 0.5
        },
        {
          "id": 2,
          "value": 0.5
        },
        {
          "id": 3,
          "value": 0.5
        },
        {
          "id": 4,
          "value": 0.5
        },
        {
          "id": 5,
          "value": 0.542999983
        },
        {
          "id": 6,
          "value": 5.0
        },
        {
          "id": 7,
          "value": 0.5
        },
        {
          "id": 8,
          "value": 0.0
        },
        {
          "id": 9,
          "value": 0.0
        },
        {
          "id": 10,
          "value": 0.0
        },
        {
          "id": 11,
          "value": 0.0
        },
        {
          "id": 12,
          "value": 0.0
        }
      ],
      "rightModuleId": 64,
      "data": {
        "pulses_mode": 0
      },
      "pos": [
        16,
        2
      ]
    },
    {
      "id": 64,
      "plugin": "StellareModular",
      "version": "1.0.0",
      "model": "TuringMachine",
      "params": [
        {
          "id": 0,
          "value": 0.5
        },
        {
          "id": 1,
          "value": 0.5
        },
        {
          "id": 2,
          "value": 0.5
        },
        {
          "id": 3,
          "value": 0.5
        },
        {
          "id": 4,
          "value": 0.5
        },
        {
          "id": 5,
          "value": -0.312000036
        },
        {
          "id": 6,
          "value": 5.0
        },
        {
          "id": 7,
          "value": 0.5
        },
        {
          "id": 8,
          "value": 0.0
        },
        {
          "id": 9,
          "value": 0.0
        },
        {
          "id": 10,
          "value": 0.0
        },
        {
          "id": 11,
          "value": 0.0
        },
        {
          "id": 12,
          "value": 0.0
        }
      ],
      "leftModuleId": 63,
      "data": {
        "pulses_mode": 0
      },
      "pos": [
        34,
        2
      ]
    },
    {
      "id": 67,
      "plugin": "AudibleInstruments",
      "version": "1.5.0",
      "model": "Tides2",
      "params": [
        {
          "id": 0,
          "value": 0.0
        },
        {
          "id": 1,
          "value": 0.0
        },
        {
          "id": 2,
          "value": 0.0
        },
        {
          "id": 3,
          "value": -35.3279953
        },
        {
          "id": 4,
          "value": 0.5
        },
        {
          "id": 5,
          "value": 0.5
        },
        {
          "id": 6,
          "value": 0.5
        },
        {
          "id": 7,
          "value": 1.0
        },
        {
          "id": 8,
          "value": 0.0
        },
        {
          "id": 9,
          "value": 0.0
        },
        {
          "id": 10,
          "value": 0.0
        },
        {
          "id": 11,
          "value": 0.0
        },
        {
          "id": 12,
          "value": 0.0
        }
      ],
      "leftModuleId": 96,
      "rightModuleId": 68,
      "data": {
        "range": 1,
        "output": 0,
        "ramp": 1
      },
      "pos": [
        197,
        2
      ]
    },
    {
      "id": 68,
      "plugin": "AudibleInstruments",
      "version": "1.5.0",
      "model": "Tides2",
      "params": [
        {
          "id": 0,
          "value": 0.0
        },
        {
          "id": 1,
          "value": 0.0
        },
        {
          "id": 2,
          "value": 0.0
        },
        {
          "id": 3,
          "value": -39.0719986
        },
        {
          "id": 4,
          "value": 0.5
        },
        {
          "id": 5,
          "value": 0.5
        },
        {
          "id": 6,
          "value": 0.5
        },
        {
          "id": 7,
          "value": 1.0
        },
        {
          "id": 8,
          "value": 0.0
        },
        {
          "id": 9,
          "value": 0.0
        },
        {
          "id": 10,
          "value": 0.0
        },
        {
          "id": 11,
          "value": 0.0
        },
        {
          "id": 12,
          "value": 0.0
        }
      ],
      "leftModuleId": 67,
      "rightModuleId": 69,
      "data": {
        "range": 1,
        "output": 0,
        "ramp": 1
      },
      "pos": [
        211,
        2
      ]
    },
    {
      "id": 69,
      "plugin": "AudibleInstruments",
      "version": "1.5.0",
      "model": "Tides2",
      "params": [
        {
          "id": 0,
          "value": 0.0
        },
        {
          "id": 1,
          "value": 0.0
        },
        {
          "id": 2,
          "value": 0.0
        },
        {
          "id": 3,
          "value": -33.3119965
        },
        {
          "id": 4,
          "value": 0.5
        },
        {
          "id": 5,
          "value": 0.5
        },
        {
          "id": 6,
          "value": 0.5
        },
        {
          "id": 7,
          "value": 1.0
        },
        {
          "id": 8,
          "value": 0.0
        },
        {
          "id": 9,
          "value": 0.0
        },
        {
          "id": 10,
          "value": 0.0
        },
        {
          "id": 11,
          "value": 0.0
        },
        {
          "id": 12,
          "value": 0.0
        }
      ],
      "leftModuleId": 68,
      "data": {
        "range": 1,
        "output": 0,
        "ramp": 1
      },
      "pos": [
        225,
        2
      ]
    },
    {
      "id": 70,
      "plugin": "Fundamental",
      "version": "1.4.0",
      "model": "VCA-1",
      "params": [
        {
          "id": 0,
          "value": 1.0
        },
        {
          "id": 1,
          "value": 1.0
        }
      ],
      "leftModuleId": 62,
      "rightModuleId": 26,
      "pos": [
        89,
        3
      ]
    },
    {
      "id": 9,
      "plugin": "trowaSoft",
      "version": "1.0.3",
      "model": "cvOSCcv",
      "params": [
        {
          "id": 0,
          "value": 0.0
        },
        {
          "id": 1,
          "value": 0.0
        },
        {
          "id": 2,
          "value": 0.0
        },
        {
          "id": 3,
          "value": 0.0
        },
        {
          "id": 4,
          "value": 0.0
        },
        {
          "id": 5,
          "value": 0.0
        },
        {
          "id": 6,
          "value": 0.0
        },
        {
          "id": 7,
          "value": 1.0
        },
        {
          "id": 8,
          "value": 1.0
        },
        {
          "id": 9,
          "value": 0.0
        },
        {
          "id": 10,
          "value": 0.0
        },
        {
          "id": 11,
          "value": 1.0
        },
        {
          "id": 12,
          "value": 0.0
        },
        {
          "id": 13,
          "value": 0.0
        },
        {
          "id": 14,
          "value": 0.0
        },
        {
          "id": 15,
          "value": 0.0
        },
        {
          "id": 16,
          "value": 0.0
        },
        {
          "id": 17,
          "value": 0.0
        },
        {
          "id": 18,
          "value": 0.0
        },
        {
          "id": 19,
          "value": 0.0
        },
        {
          "id": 20,
          "value": 0.0
        },
        {
          "id": 21,
          "value": 0.0
        },
        {
          "id": 22,
          "value": 0.0
        },
        {
          "id": 23,
          "value": 0.0
        },
        {
          "id": 24,
          "value": 0.0
        },
        {
          "id": 25,
          "value": 0.0
        },
        {
          "id": 26,
          "value": 0.0
        },
        {
          "id": 27,
          "value": 0.0
        },
        {
          "id": 28,
          "value": 0.0
        },
        {
          "id": 29,
          "value": 1.0
        },
        {
          "id": 30,
          "value": 0.0
        },
        {
          "id": 31,
          "value": 0.0
        },
        {
          "id": 32,
          "value": 0.0
        },
        {
          "id": 33,
          "value": 0.0
        },
        {
          "id": 34,
          "value": 0.0
        },
        {
          "id": 35,
          "value": 0.0
        },
        {
          "id": 36,
          "value": 0.0
        }
      ],
      "leftModuleId": 12,
      "rightModuleId": 35,
      "data": {
        "version": 17,
        "osc": {
          "IpAddress": "127.0.0.1",
          "TxPort": 7050,
          "RxPort": 7051,
          "Namespace": "",
          "AutoReconnectAtLoad": true,
          "Initialized": true
        },
        "numCh": 8,
        "inputChannels": [
          {
            "path": "/ch/1",
            "dataType": 1,
            "convertVals": 0,
            "clipVals": 0,
            "minV": -5.0,
            "maxV": 5.58333015,
            "minOSC": 0.0,
            "maxOSC": 127.0,
            "channelSensitivity": 0.0500000007
          },
          {
            "path": "/ch/2",
            "dataType": 1,
            "convertVals": 0,
            "clipVals": 0,
            "minV": -5.0,
            "maxV": 5.58333015,
            "minOSC": 0.0,
            "maxOSC": 127.0,
            "channelSensitivity": 0.0500000007
          },
          {
            "path": "/ch/3",
            "dataType": 1,
            "convertVals": 0,
            "clipVals": 0,
            "minV": -5.0,
            "maxV": 5.58333015,
            "minOSC": 0.0,
            "maxOSC": 127.0,
            "channelSensitivity": 0.0500000007
          },
          {
            "path": "/ch/4",
            "dataType": 1,
            "convertVals": 0,
            "clipVals": 0,
            "minV": -5.0,
            "maxV": 5.58333015,
            "minOSC": 0.0,
            "maxOSC": 127.0,
            "channelSensitivity": 0.0500000007
          },
          {
            "path": "/ch/5",
            "dataType": 1,
            "convertVals": 0,
            "clipVals": 0,
            "minV": -5.0,
            "maxV": 5.58333015,
            "minOSC": 0.0,
            "maxOSC": 127.0,
            "channelSensitivity": 0.0500000007
          },
          {
            "path": "/ch/6",
            "dataType": 1,
            "convertVals": 0,
            "clipVals": 0,
            "minV": -5.0,
            "maxV": 5.58333015,
            "minOSC": 0.0,
            "maxOSC": 127.0,
            "channelSensitivity": 0.0500000007
          },
          {
            "path": "/ch/7",
            "dataType": 1,
            "convertVals": 0,
            "clipVals": 0,
            "minV": -5.0,
            "maxV": 5.58333015,
            "minOSC": 0.0,
            "maxOSC": 127.0,
            "channelSensitivity": 0.0500000007
          },
          {
            "path": "/ch/8",
            "dataType": 1,
            "convertVals": 0,
            "clipVals": 0,
            "minV": -5.0,
            "maxV": 5.58333015,
            "minOSC": 0.0,
            "maxOSC": 127.0,
            "channelSensitivity": 0.0500000007
          }
        ],
        "outputChannels": [
          {
            "path": "/ch/1",
            "dataType": 1,
            "convertVals": 1,
            "clipVals": 0,
            "minV": -2.0,
            "maxV": 0.5,
            "minOSC": 0.0,
            "maxOSC": 1.0
          },
          {
            "path": "/ch/2",
            "dataType": 1,
            "convertVals": 0,
            "clipVals": 0,
            "minV": -5.0,
            "maxV": 5.58333015,
            "minOSC": 0.0,
            "maxOSC": 127.0
          },
          {
            "path": "/ch/3",
            "dataType": 1,
            "convertVals": 0,
            "clipVals": 0,
            "minV": -5.0,
            "maxV": 5.58333015,
            "minOSC": 0.0,
            "maxOSC": 127.0
          },
          {
            "path": "/ch/4",
            "dataType": 1,
            "convertVals": 0,
            "clipVals": 0,
            "minV": -5.0,
            "maxV": 5.58333015,
            "minOSC": 0.0,
            "maxOSC": 127.0
          },
          {
            "path": "/ch/5",
            "dataType": 1,
            "convertVals": 0,
            "clipVals": 0,
            "minV": -5.0,
            "maxV": 5.58333015,
            "minOSC": 0.0,
            "maxOSC": 127.0
          },
          {
            "path": "/ch/6",
            "dataType": 1,
            "convertVals": 0,
            "clipVals": 0,
            "minV": -5.0,
            "maxV": 5.58333015,
            "minOSC": 0.0,
            "maxOSC": 127.0
          },
          {
            "path": "/ch/7",
            "dataType": 1,
            "convertVals": 0,
            "clipVals": 0,
            "minV": -5.0,
            "maxV": 5.58333015,
            "minOSC": 0.0,
            "maxOSC": 127.0
          },
          {
            "path": "/ch/8",
            "dataType": 1,
            "convertVals": 0,
            "clipVals": 0,
            "minV": -5.0,
            "maxV": 5.58333015,
            "minOSC": 0.0,
            "maxOSC": 127.0
          }
        ]
      },
      "pos": [
        57,
        0
      ]
    },
    {
      "id": 73,
      "plugin": "CountModula",
      "version": "1.16.0",
      "model": "Mult",
      "params": [],
      "leftModuleId": 34,
      "data": {
        "moduleVersion": 1,
        "theme": 0
      },
      "pos": [
        108,
        0
      ]
    },
    {
      "id": 74,
      "plugin": "AudibleInstruments",
      "version": "1.5.0",
      "model": "Veils",
      "params": [
        {
          "id": 0,
          "value": 1.0
        },
        {
          "id": 1,
          "value": 1.0
        },
        {
          "id": 2,
          "value": 1.0
        },
        {
          "id": 3,
          "value": 0.990999997
        },
        {
          "id": 4,
          "value": 1.0
        },
        {
          "id": 5,
          "value": 1.0
        },
        {
          "id": 6,
          "value": 1.0
        },
        {
          "id": 7,
          "value": 1.0
        }
      ],
      "leftModuleId": 13,
      "rightModuleId": 93,
      "pos": [
        136,
        2
      ]
    },
    {
      "id": 78,
      "plugin": "Valley",
      "version": "1.1.7",
      "model": "Topograph",
      "params": [
        {
          "id": 0,
          "value": 0.0
        },
        {
          "id": 1,
          "value": 0.0
        },
        {
          "id": 2,
          "value": 0.0
        },
        {
          "id": 3,
          "value": 0.636000097
        },
        {
          "id": 4,
          "value": 0.412500054
        },
        {
          "id": 5,
          "value": 0.204000026
        },
        {
          "id": 6,
          "value": 0.817000747
        },
        {
          "id": 7,
          "value": 0.669499815
        },
        {
          "id": 8,
          "value": 0.771499753
        },
        {
          "id": 9,
          "value": 0.0
        }
      ],
      "leftModuleId": 79,
      "rightModuleId": 81,
      "data": {
        "sequencerMode": 1,
        "triggerOutputMode": 1,
        "accOutputMode": 1,
        "extClockResolution": 0,
        "chaosKnobMode": 0,
        "runMode": 0,
        "panelStyle": 0,
        "running": 1
      },
      "pos": [
        169,
        3
      ]
    },
    {
      "id": 79,
      "plugin": "Fundamental",
      "version": "1.4.0",
      "model": "VCA-1",
      "params": [
        {
          "id": 0,
          "value": 1.0
        },
        {
          "id": 1,
          "value": 1.0
        }
      ],
      "leftModuleId": 88,
      "rightModuleId": 78,
      "pos": [
        166,
        3
      ]
    },
    {
      "id": 81,
      "plugin": "VultModulesFree",
      "version": "1.19.1",
      "model": "Trummor",
      "params": [
        {
          "id": 0,
          "value": 0.699999988
        },
        {
          "id": 1,
          "value": 0.100000001
        },
        {
          "id": 2,
          "value": 0.0
        },
        {
          "id": 3,
          "value": 0.200000003
        },
        {
          "id": 4,
          "value": 0.200000003
        },
        {
          "id": 5,
          "value": 0.0
        },
        {
          "id": 6,
          "value": 0.0500000007
        },
        {
          "id": 7,
          "value": 0.0500000007
        },
        {
          "id": 8,
          "value": 0.0
        },
        {
          "id": 9,
          "value": 0.5
        },
        {
          "id": 10,
          "value": 0.0
        },
        {
          "id": 11,
          "value": -0.699999988
        },
        {
          "id": 12,
          "value": 0.0
        },
        {
          "id": 13,
          "value": 0.0
        },
        {
          "id": 14,
          "value": 0.0
        },
        {
          "id": 15,
          "value": 0.0
        },
        {
          "id": 16,
          "value": 0.0
        },
        {
          "id": 17,
          "value": 0.0
        },
        {
          "id": 18,
          "value": 0.0
        },
        {
          "id": 19,
          "value": 0.0
        },
        {
          "id": 20,
          "value": 0.0
        }
      ],
      "leftModuleId": 78,
      "rightModuleId": 84,
      "pos": [
        185,
        3
      ]
    },
    {
      "id": 84,
      "plugin": "DrumKit",
      "version": "1.1.4",
      "model": "SnareDrumN",
      "params": [
        {
          "id": 0,
          "value": 7.0
        },
        {
          "id": 1,
          "value": 7.0
        },
        {
          "id": 2,
          "value": 0.0
        },
        {
          "id": 3,
          "value": 0.0
        },
        {
          "id": 4,
          "value": 0.0
        },
        {
          "id": 5,
          "value": 0.0
        },
        {
          "id": 6,
          "value": 0.0
        },
        {
          "id": 7,
          "value": 0.0
        },
        {
          "id": 8,
          "value": 0.0
        },
        {
          "id": 9,
          "value": 0.0
        },
        {
          "id": 10,
          "value": 0.0
        },
        {
          "id": 11,
          "value": 0.0
        },
        {
          "id": 12,
          "value": 0.0
        },
        {
          "id": 13,
          "value": 0.0
        },
        {
          "id": 14,
          "value": 0.0
        },
        {
          "id": 15,
          "value": 0.0
        },
        {
          "id": 16,
          "value": 1.0
        },
        {
          "id": 17,
          "value": 1.0
        },
        {
          "id": 18,
          "value": 0.0
        },
        {
          "id": 19,
          "value": 0.0
        },
        {
          "id": 20,
          "value": 0.0
        },
        {
          "id": 21,
          "value": 0.0
        },
        {
          "id": 22,
          "value": 0.0
        },
        {
          "id": 23,
          "value": 0.0
        },
        {
          "id": 24,
          "value": 0.0
        },
        {
          "id": 25,
          "value": 0.0
        },
        {
          "id": 26,
          "value": 0.0
        },
        {
          "id": 27,
          "value": 0.0
        },
        {
          "id": 28,
          "value": 0.0
        },
        {
          "id": 29,
          "value": 0.0
        },
        {
          "id": 30,
          "value": 0.0
        },
        {
          "id": 31,
          "value": 0.0
        }
      ],
      "leftModuleId": 81,
      "rightModuleId": 85,
      "pos": [
        205,
        3
      ]
    },
    {
      "id": 85,
      "plugin": "DrumKit",
      "version": "1.1.4",
      "model": "ClosedHiHat",
      "params": [
        {
          "id": 0,
          "value": 7.0
        },
        {
          "id": 1,
          "value": 7.0
        },
        {
          "id": 2,
          "value": 0.0
        },
        {
          "id": 3,
          "value": 0.0
        },
        {
          "id": 4,
          "value": 0.0
        },
        {
          "id": 5,
          "value": 0.0
        },
        {
          "id": 6,
          "value": 0.0
        },
        {
          "id": 7,
          "value": 0.0
        },
        {
          "id": 8,
          "value": 0.0
        },
        {
          "id": 9,
          "value": 0.0
        },
        {
          "id": 10,
          "value": 0.0
        },
        {
          "id": 11,
          "value": 0.0
        },
        {
          "id": 12,
          "value": 0.0
        },
        {
          "id": 13,
          "value": 0.0
        },
        {
          "id": 14,
          "value": 0.0
        },
        {
          "id": 15,
          "value": 0.0
        },
        {
          "id": 16,
          "value": 1.0
        },
        {
          "id": 17,
          "value": 1.0
        },
        {
          "id": 18,
          "value": 0.0
        },
        {
          "id": 19,
          "value": 0.0
        },
        {
          "id": 20,
          "value": 0.0
        },
        {
          "id": 21,
          "value": 0.0
        },
        {
          "id": 22,
          "value": 0.0
        },
        {
          "id": 23,
          "value": 0.0
        },
        {
          "id": 24,
          "value": 0.0
        },
        {
          "id": 25,
          "value": 0.0
        },
        {
          "id": 26,
          "value": 0.0
        },
        {
          "id": 27,
          "value": 0.0
        },
        {
          "id": 28,
          "value": 0.0
        },
        {
          "id": 29,
          "value": 0.0
        },
        {
          "id": 30,
          "value": 0.0
        },
        {
          "id": 31,
          "value": 0.0
        }
      ],
      "leftModuleId": 84,
      "pos": [
        211,
        3
      ]
    },
    {
      "id": 86,
      "plugin": "Valley",
      "version": "1.1.7",
      "model": "Plateau",
      "params": [
        {
          "id": 0,
          "value": 1.0
        },
        {
          "id": 1,
          "value": 0.5
        },
        {
          "id": 2,
          "value": 0.0
        },
        {
          "id": 3,
          "value": 10.0
        },
        {
          "id": 4,
          "value": 10.0
        },
        {
          "id": 5,
          "value": 0.5
        },
        {
          "id": 6,
          "value": 10.0
        },
        {
          "id": 7,
          "value": 0.549950004
        },
        {
          "id": 8,
          "value": 10.0
        },
        {
          "id": 9,
          "value": 10.0
        },
        {
          "id": 10,
          "value": 0.0
        },
        {
          "id": 11,
          "value": 0.5
        },
        {
          "id": 12,
          "value": 0.5
        },
        {
          "id": 13,
          "value": 0.0
        },
        {
          "id": 14,
          "value": 0.0
        },
        {
          "id": 15,
          "value": 0.0
        },
        {
          "id": 16,
          "value": 0.0
        },
        {
          "id": 17,
          "value": 0.0
        },
        {
          "id": 18,
          "value": 0.0
        },
        {
          "id": 19,
          "value": 0.0
        },
        {
          "id": 20,
          "value": 0.0
        },
        {
          "id": 21,
          "value": 0.0
        },
        {
          "id": 22,
          "value": 0.0
        },
        {
          "id": 23,
          "value": 0.0
        },
        {
          "id": 24,
          "value": 0.0
        },
        {
          "id": 25,
          "value": 0.0
        },
        {
          "id": 26,
          "value": 0.0
        },
        {
          "id": 27,
          "value": 0.0
        },
        {
          "id": 28,
          "value": 0.0
        },
        {
          "id": 29,
          "value": 0.0
        },
        {
          "id": 30,
          "value": 1.0
        }
      ],
      "leftModuleId": 97,
      "rightModuleId": 25,
      "data": {
        "frozen": false,
        "freezeToggle": false,
        "panelStyle": 0,
        "tuned": 0,
        "diffuseInput": 1,
        "preDelayCVSens": 0,
        "inputSensitivity": 0,
        "outputSaturation": 0
      },
      "pos": [
        138,
        0
      ]
    },
    {
      "id": 88,
      "plugin": "Bogaudio",
      "version": "1.1.38",
      "model": "Bogaudio-EightOne",
      "params": [
        {
          "id": 0,
          "value": 2.0
        },
        {
          "id": 1,
          "value": 1.0
        },
        {
          "id": 2,
          "value": 0.0
        }
      ],
      "leftModuleId": 94,
      "rightModuleId": 79,
      "data": {
        "poly_input": 8,
        "select_on_clock": false,
        "triggered_select": false,
        "reverse_on_negative_clock": false,
        "wrap_select_at_steps": false
      },
      "pos": [
        160,
        3
      ]
    },
    {
      "id": 89,
      "plugin": "Core",
      "version": "1.1.6",
      "model": "Notes",
      "params": [],
      "rightModuleId": 60,
      "text": "Music Thing Modular Turing Machines are being used to create random pitch sequences for the four macro oscillator modules in FM mode.",
      "pos": [
        0,
        1
      ]
    },
    {
      "id": 90,
      "plugin": "Core",
      "version": "1.1.6",
      "model": "Notes",
      "params": [],
      "leftModuleId": 61,
      "rightModuleId": 37,
      "text": "RJModules Euclidean creates eucliean trigger sequencers that trigger the VISH envelope generators\n ",
      "pos": [
        52,
        1
      ]
    },
    {
      "id": 91,
      "plugin": "Core",
      "version": "1.1.6",
      "model": "Notes",
      "params": [],
      "leftModuleId": 46,
      "rightModuleId": 11,
      "text": "macro oscillators are set to FM mode to allow them to become harsh as CV f;pwomg  into the timre and color inputs goes higher    ",
      "pos": [
        88,
        2
      ]
    },
    {
      "id": 92,
      "plugin": "Core",
      "version": "1.1.6",
      "model": "Notes",
      "params": [],
      "leftModuleId": 27,
      "text": "This top VCA controllers the volume of the four macro oscillators in FM mode. The VCA is opened by the VISH envelope generators.    ",
      "pos": [
        148,
        1
      ]
    },
    {
      "id": 93,
      "plugin": "Core",
      "version": "1.1.6",
      "model": "Notes",
      "params": [],
      "leftModuleId": 74,
      "text": "This bottom VCA controls the amount of CV being sent to the timbre and color controls on the macro oscillators. The input comes from the  corresponding VISH envelope generator. The amount that is amplified is controlled by the OSC messages sent into cvOSCcv  ",
      "pos": [
        148,
        2
      ]
    },
    {
      "id": 94,
      "plugin": "Core",
      "version": "1.1.6",
      "model": "Notes",
      "params": [],
      "rightModuleId": 88,
      "text": "This section to the right is the drums that come in when a monitor is triggered. The first module is a switch with two channels. The first channel is empty. The second  contains an offset voltage that would open the VCA all the way. The input of the VCA is the global clock. That clock feeds into Tpograph a drum sequencer.   ",
      "pos": [
        144,
        3
      ]
    },
    {
      "id": 95,
      "plugin": "Core",
      "version": "1.1.6",
      "model": "Notes",
      "params": [],
      "rightModuleId": 62,
      "text": "This section to the right is until the final macro oscillator is the quantization section. There is an offset voltage going through a VCA. The VCA is opened and closed by the OSC messages. This makes the pitch range increase as the VCA opens.       ",
      "pos": [
        68,
        3
      ]
    },
    {
      "id": 96,
      "plugin": "Core",
      "version": "1.1.6",
      "model": "Notes",
      "params": [],
      "rightModuleId": 67,
      "text": "The tidal modulators are adding some movement to the envelope generators and the reverb to keep the sound from feeling stale  ",
      "pos": [
        181,
        2
      ]
    },
    {
      "id": 97,
      "plugin": "Core",
      "version": "1.1.6",
      "model": "Notes",
      "params": [],
      "rightModuleId": 86,
      "text": "Plateau is providing reverb. MixMaster is for mixing the volumes and allowing a send to the reverb. Then Audio 8 is the final output",
      "pos": [
        122,
        0
      ]
    },
    {
      "id": 98,
      "plugin": "Core",
      "version": "1.1.6",
      "model": "Notes",
      "params": [],
      "rightModuleId": 12,
      "text": "cvOSCcv is the heart of this system. /ch/1 is where the value of the monitor should be sent. /ch/2 is where triggers need sent. These control sound quality and BPM of this patch",
      "pos": [
        28,
        0
      ]
    }
  ],
  "cables": [
    {
      "id": 20,
      "outputModuleId": 25,
      "outputId": 3,
      "inputModuleId": 1,
      "inputId": 0,
      "color": "#0c8e15"
    },
    {
      "id": 21,
      "outputModuleId": 25,
      "outputId": 4,
      "inputModuleId": 1,
      "inputId": 1,
      "color": "#c91847"
    },
    {
      "id": 22,
      "outputModuleId": 27,
      "outputId": 0,
      "inputModuleId": 25,
      "inputId": 0,
      "color": "#0986ad"
    },
    {
      "id": 23,
      "outputModuleId": 27,
      "outputId": 1,
      "inputModuleId": 25,
      "inputId": 2,
      "color": "#c9b70e"
    },
    {
      "id": 24,
      "outputModuleId": 27,
      "outputId": 2,
      "inputModuleId": 25,
      "inputId": 4,
      "color": "#0c8e15"
    },
    {
      "id": 25,
      "outputModuleId": 27,
      "outputId": 3,
      "inputModuleId": 25,
      "inputId": 6,
      "color": "#c91847"
    },
    {
      "id": 30,
      "outputModuleId": 15,
      "outputId": 0,
      "inputModuleId": 27,
      "inputId": 0,
      "color": "#0986ad"
    },
    {
      "id": 39,
      "outputModuleId": 10,
      "outputId": 0,
      "inputModuleId": 27,
      "inputId": 1,
      "color": "#0c8e15"
    },
    {
      "id": 40,
      "outputModuleId": 11,
      "outputId": 0,
      "inputModuleId": 27,
      "inputId": 2,
      "color": "#c91847"
    },
    {
      "id": 41,
      "outputModuleId": 13,
      "outputId": 0,
      "inputModuleId": 27,
      "inputId": 3,
      "color": "#0986ad"
    },
    {
      "id": 61,
      "outputModuleId": 34,
      "outputId": 1,
      "inputModuleId": 37,
      "inputId": 0,
      "color": "#0c8e15"
    },
    {
      "id": 62,
      "outputModuleId": 34,
      "outputId": 4,
      "inputModuleId": 37,
      "inputId": 1,
      "color": "#c91847"
    },
    {
      "id": 70,
      "outputModuleId": 40,
      "outputId": 0,
      "inputModuleId": 27,
      "inputId": 4,
      "color": "#c9b70e"
    },
    {
      "id": 71,
      "outputModuleId": 37,
      "outputId": 0,
      "inputModuleId": 40,
      "inputId": 4,
      "color": "#0c8e15"
    },
    {
      "id": 72,
      "outputModuleId": 40,
      "outputId": 0,
      "inputModuleId": 23,
      "inputId": 0,
      "color": "#c91847"
    },
    {
      "id": 73,
      "outputModuleId": 41,
      "outputId": 0,
      "inputModuleId": 23,
      "inputId": 1,
      "color": "#0986ad"
    },
    {
      "id": 74,
      "outputModuleId": 42,
      "outputId": 0,
      "inputModuleId": 24,
      "inputId": 0,
      "color": "#c9b70e"
    },
    {
      "id": 75,
      "outputModuleId": 43,
      "outputId": 0,
      "inputModuleId": 24,
      "inputId": 1,
      "color": "#0c8e15"
    },
    {
      "id": 76,
      "outputModuleId": 34,
      "outputId": 1,
      "inputModuleId": 44,
      "inputId": 0,
      "color": "#c91847"
    },
    {
      "id": 77,
      "outputModuleId": 34,
      "outputId": 4,
      "inputModuleId": 44,
      "inputId": 1,
      "color": "#0986ad"
    },
    {
      "id": 78,
      "outputModuleId": 44,
      "outputId": 0,
      "inputModuleId": 41,
      "inputId": 4,
      "color": "#c9b70e"
    },
    {
      "id": 79,
      "outputModuleId": 41,
      "outputId": 0,
      "inputModuleId": 27,
      "inputId": 5,
      "color": "#0c8e15"
    },
    {
      "id": 80,
      "outputModuleId": 42,
      "outputId": 0,
      "inputModuleId": 27,
      "inputId": 6,
      "color": "#c91847"
    },
    {
      "id": 81,
      "outputModuleId": 43,
      "outputId": 0,
      "inputModuleId": 27,
      "inputId": 7,
      "color": "#0986ad"
    },
    {
      "id": 82,
      "outputModuleId": 34,
      "outputId": 1,
      "inputModuleId": 45,
      "inputId": 0,
      "color": "#c9b70e"
    },
    {
      "id": 83,
      "outputModuleId": 34,
      "outputId": 4,
      "inputModuleId": 45,
      "inputId": 1,
      "color": "#0c8e15"
    },
    {
      "id": 84,
      "outputModuleId": 34,
      "outputId": 1,
      "inputModuleId": 46,
      "inputId": 0,
      "color": "#c91847"
    },
    {
      "id": 85,
      "outputModuleId": 34,
      "outputId": 4,
      "inputModuleId": 46,
      "inputId": 1,
      "color": "#0986ad"
    },
    {
      "id": 86,
      "outputModuleId": 45,
      "outputId": 0,
      "inputModuleId": 42,
      "inputId": 4,
      "color": "#c9b70e"
    },
    {
      "id": 87,
      "outputModuleId": 46,
      "outputId": 0,
      "inputModuleId": 43,
      "inputId": 4,
      "color": "#0c8e15"
    },
    {
      "id": 99,
      "outputModuleId": 26,
      "outputId": 0,
      "inputModuleId": 56,
      "inputId": 2,
      "color": "#c91847"
    },
    {
      "id": 100,
      "outputModuleId": 56,
      "outputId": 0,
      "inputModuleId": 15,
      "inputId": 1,
      "color": "#0986ad"
    },
    {
      "id": 101,
      "outputModuleId": 26,
      "outputId": 1,
      "inputModuleId": 57,
      "inputId": 2,
      "color": "#0c8e15"
    },
    {
      "id": 102,
      "outputModuleId": 57,
      "outputId": 0,
      "inputModuleId": 10,
      "inputId": 1,
      "color": "#c91847"
    },
    {
      "id": 103,
      "outputModuleId": 26,
      "outputId": 2,
      "inputModuleId": 58,
      "inputId": 2,
      "color": "#0986ad"
    },
    {
      "id": 104,
      "outputModuleId": 58,
      "outputId": 0,
      "inputModuleId": 11,
      "inputId": 1,
      "color": "#c9b70e"
    },
    {
      "id": 105,
      "outputModuleId": 26,
      "outputId": 3,
      "inputModuleId": 59,
      "inputId": 2,
      "color": "#0c8e15"
    },
    {
      "id": 106,
      "outputModuleId": 59,
      "outputId": 0,
      "inputModuleId": 13,
      "inputId": 1,
      "color": "#c91847"
    },
    {
      "id": 107,
      "outputModuleId": 34,
      "outputId": 1,
      "inputModuleId": 60,
      "inputId": 0,
      "color": "#0986ad"
    },
    {
      "id": 108,
      "outputModuleId": 34,
      "outputId": 4,
      "inputModuleId": 60,
      "inputId": 1,
      "color": "#c9b70e"
    },
    {
      "id": 109,
      "outputModuleId": 60,
      "outputId": 12,
      "inputModuleId": 26,
      "inputId": 0,
      "color": "#0c8e15"
    },
    {
      "id": 110,
      "outputModuleId": 34,
      "outputId": 1,
      "inputModuleId": 61,
      "inputId": 0,
      "color": "#c91847"
    },
    {
      "id": 111,
      "outputModuleId": 34,
      "outputId": 4,
      "inputModuleId": 61,
      "inputId": 1,
      "color": "#0986ad"
    },
    {
      "id": 112,
      "outputModuleId": 61,
      "outputId": 12,
      "inputModuleId": 26,
      "inputId": 1,
      "color": "#c9b70e"
    },
    {
      "id": 117,
      "outputModuleId": 34,
      "outputId": 4,
      "inputModuleId": 63,
      "inputId": 1,
      "color": "#0c8e15"
    },
    {
      "id": 118,
      "outputModuleId": 34,
      "outputId": 1,
      "inputModuleId": 63,
      "inputId": 0,
      "color": "#c91847"
    },
    {
      "id": 119,
      "outputModuleId": 63,
      "outputId": 12,
      "inputModuleId": 26,
      "inputId": 2,
      "color": "#0986ad"
    },
    {
      "id": 120,
      "outputModuleId": 34,
      "outputId": 1,
      "inputModuleId": 64,
      "inputId": 0,
      "color": "#c9b70e"
    },
    {
      "id": 121,
      "outputModuleId": 34,
      "outputId": 4,
      "inputModuleId": 64,
      "inputId": 1,
      "color": "#0c8e15"
    },
    {
      "id": 122,
      "outputModuleId": 64,
      "outputId": 12,
      "inputModuleId": 26,
      "inputId": 3,
      "color": "#c91847"
    },
    {
      "id": 137,
      "outputModuleId": 67,
      "outputId": 0,
      "inputModuleId": 40,
      "inputId": 0,
      "color": "#0c8e15"
    },
    {
      "id": 138,
      "outputModuleId": 67,
      "outputId": 1,
      "inputModuleId": 41,
      "inputId": 0,
      "color": "#c91847"
    },
    {
      "id": 139,
      "outputModuleId": 67,
      "outputId": 2,
      "inputModuleId": 42,
      "inputId": 0,
      "color": "#0986ad"
    },
    {
      "id": 140,
      "outputModuleId": 67,
      "outputId": 3,
      "inputModuleId": 43,
      "inputId": 0,
      "color": "#c9b70e"
    },
    {
      "id": 141,
      "outputModuleId": 68,
      "outputId": 0,
      "inputModuleId": 43,
      "inputId": 2,
      "color": "#0c8e15"
    },
    {
      "id": 142,
      "outputModuleId": 68,
      "outputId": 1,
      "inputModuleId": 42,
      "inputId": 2,
      "color": "#c91847"
    },
    {
      "id": 143,
      "outputModuleId": 68,
      "outputId": 2,
      "inputModuleId": 41,
      "inputId": 2,
      "color": "#0986ad"
    },
    {
      "id": 144,
      "outputModuleId": 68,
      "outputId": 3,
      "inputModuleId": 40,
      "inputId": 2,
      "color": "#c9b70e"
    },
    {
      "id": 145,
      "outputModuleId": 69,
      "outputId": 0,
      "inputModuleId": 40,
      "inputId": 3,
      "color": "#0c8e15"
    },
    {
      "id": 146,
      "outputModuleId": 69,
      "outputId": 1,
      "inputModuleId": 41,
      "inputId": 3,
      "color": "#c91847"
    },
    {
      "id": 147,
      "outputModuleId": 69,
      "outputId": 2,
      "inputModuleId": 42,
      "inputId": 3,
      "color": "#0986ad"
    },
    {
      "id": 148,
      "outputModuleId": 69,
      "outputId": 3,
      "inputModuleId": 43,
      "inputId": 3,
      "color": "#c9b70e"
    },
    {
      "id": 116,
      "outputModuleId": 70,
      "outputId": 0,
      "inputModuleId": 26,
      "inputId": 7,
      "color": "#c9b70e"
    },
    {
      "id": 115,
      "outputModuleId": 70,
      "outputId": 0,
      "inputModuleId": 26,
      "inputId": 6,
      "color": "#0986ad"
    },
    {
      "id": 114,
      "outputModuleId": 70,
      "outputId": 0,
      "inputModuleId": 26,
      "inputId": 5,
      "color": "#c91847"
    },
    {
      "id": 113,
      "outputModuleId": 70,
      "outputId": 0,
      "inputModuleId": 26,
      "inputId": 4,
      "color": "#0c8e15"
    },
    {
      "id": 149,
      "outputModuleId": 62,
      "outputId": 0,
      "inputModuleId": 70,
      "inputId": 1,
      "color": "#0c8e15"
    },
    {
      "id": 153,
      "outputModuleId": 17,
      "outputId": 0,
      "inputModuleId": 25,
      "inputId": 8,
      "color": "#0c8e15"
    },
    {
      "id": 159,
      "outputModuleId": 9,
      "outputId": 1,
      "inputModuleId": 12,
      "inputId": 0,
      "color": "#c9b70e"
    },
    {
      "id": 160,
      "outputModuleId": 9,
      "outputId": 5,
      "inputModuleId": 12,
      "inputId": 1,
      "color": "#0c8e15"
    },
    {
      "id": 162,
      "outputModuleId": 73,
      "outputId": 0,
      "inputModuleId": 74,
      "inputId": 4,
      "color": "#c91847"
    },
    {
      "id": 163,
      "outputModuleId": 73,
      "outputId": 1,
      "inputModuleId": 74,
      "inputId": 5,
      "color": "#0986ad"
    },
    {
      "id": 164,
      "outputModuleId": 73,
      "outputId": 2,
      "inputModuleId": 74,
      "inputId": 6,
      "color": "#c9b70e"
    },
    {
      "id": 165,
      "outputModuleId": 73,
      "outputId": 3,
      "inputModuleId": 74,
      "inputId": 7,
      "color": "#0c8e15"
    },
    {
      "id": 166,
      "outputModuleId": 43,
      "outputId": 0,
      "inputModuleId": 74,
      "inputId": 3,
      "color": "#c91847"
    },
    {
      "id": 167,
      "outputModuleId": 42,
      "outputId": 0,
      "inputModuleId": 74,
      "inputId": 2,
      "color": "#0986ad"
    },
    {
      "id": 168,
      "outputModuleId": 41,
      "outputId": 0,
      "inputModuleId": 74,
      "inputId": 1,
      "color": "#c9b70e"
    },
    {
      "id": 169,
      "outputModuleId": 40,
      "outputId": 0,
      "inputModuleId": 74,
      "inputId": 0,
      "color": "#0c8e15"
    },
    {
      "id": 170,
      "outputModuleId": 74,
      "outputId": 0,
      "inputModuleId": 15,
      "inputId": 4,
      "color": "#c91847"
    },
    {
      "id": 171,
      "outputModuleId": 74,
      "outputId": 1,
      "inputModuleId": 10,
      "inputId": 4,
      "color": "#0986ad"
    },
    {
      "id": 172,
      "outputModuleId": 74,
      "outputId": 2,
      "inputModuleId": 11,
      "inputId": 4,
      "color": "#c9b70e"
    },
    {
      "id": 173,
      "outputModuleId": 74,
      "outputId": 3,
      "inputModuleId": 13,
      "inputId": 4,
      "color": "#0c8e15"
    },
    {
      "id": 174,
      "outputModuleId": 73,
      "outputId": 4,
      "inputModuleId": 15,
      "inputId": 3,
      "color": "#c91847"
    },
    {
      "id": 175,
      "outputModuleId": 73,
      "outputId": 5,
      "inputModuleId": 10,
      "inputId": 3,
      "color": "#0986ad"
    },
    {
      "id": 176,
      "outputModuleId": 73,
      "outputId": 6,
      "inputModuleId": 11,
      "inputId": 3,
      "color": "#0c8e15"
    },
    {
      "id": 177,
      "outputModuleId": 73,
      "outputId": 7,
      "inputModuleId": 13,
      "inputId": 3,
      "color": "#0986ad"
    },
    {
      "id": 178,
      "outputModuleId": 73,
      "outputId": 0,
      "inputModuleId": 34,
      "inputId": 6,
      "color": "#c9b70e"
    },
    {
      "id": 152,
      "outputModuleId": 73,
      "outputId": 6,
      "inputModuleId": 70,
      "inputId": 0,
      "color": "#c9b70e"
    },
    {
      "id": 183,
      "outputModuleId": 34,
      "outputId": 1,
      "inputModuleId": 79,
      "inputId": 1,
      "color": "#0c8e15"
    },
    {
      "id": 195,
      "outputModuleId": 81,
      "outputId": 0,
      "inputModuleId": 25,
      "inputId": 14,
      "color": "#c91847"
    },
    {
      "id": 196,
      "outputModuleId": 78,
      "outputId": 0,
      "inputModuleId": 81,
      "inputId": 0,
      "color": "#0986ad"
    },
    {
      "id": 198,
      "outputModuleId": 79,
      "outputId": 0,
      "inputModuleId": 78,
      "inputId": 0,
      "color": "#0c8e15"
    },
    {
      "id": 199,
      "outputModuleId": 34,
      "outputId": 4,
      "inputModuleId": 78,
      "inputId": 1,
      "color": "#c91847"
    },
    {
      "id": 200,
      "outputModuleId": 78,
      "outputId": 1,
      "inputModuleId": 84,
      "inputId": 16,
      "color": "#0986ad"
    },
    {
      "id": 201,
      "outputModuleId": 84,
      "outputId": 0,
      "inputModuleId": 25,
      "inputId": 16,
      "color": "#c9b70e"
    },
    {
      "id": 202,
      "outputModuleId": 78,
      "outputId": 2,
      "inputModuleId": 85,
      "inputId": 16,
      "color": "#c91847"
    },
    {
      "id": 203,
      "outputModuleId": 85,
      "outputId": 0,
      "inputModuleId": 25,
      "inputId": 18,
      "color": "#0986ad"
    },
    {
      "id": 204,
      "outputModuleId": 25,
      "outputId": 7,
      "inputModuleId": 86,
      "inputId": 0,
      "color": "#0c8e15"
    },
    {
      "id": 205,
      "outputModuleId": 86,
      "outputId": 0,
      "inputModuleId": 25,
      "inputId": 30,
      "color": "#c91847"
    },
    {
      "id": 206,
      "outputModuleId": 86,
      "outputId": 1,
      "inputModuleId": 25,
      "inputId": 31,
      "color": "#0986ad"
    },
    {
      "id": 207,
      "outputModuleId": 68,
      "outputId": 2,
      "inputModuleId": 86,
      "inputId": 5,
      "color": "#c9b70e"
    },
    {
      "id": 208,
      "outputModuleId": 67,
      "outputId": 2,
      "inputModuleId": 86,
      "inputId": 6,
      "color": "#0c8e15"
    },
    {
      "id": 209,
      "outputModuleId": 69,
      "outputId": 2,
      "inputModuleId": 86,
      "inputId": 9,
      "color": "#c91847"
    },
    {
      "id": 210,
      "outputModuleId": 67,
      "outputId": 0,
      "inputModuleId": 86,
      "inputId": 7,
      "color": "#0986ad"
    },
    {
      "id": 182,
      "outputModuleId": 62,
      "outputId": 1,
      "inputModuleId": 88,
      "inputId": 1,
      "color": "#c9b70e"
    },
    {
      "id": 211,
      "outputModuleId": 88,
      "outputId": 0,
      "inputModuleId": 79,
      "inputId": 0,
      "color": "#c9b70e"
    },
    {
      "id": 212,
      "outputModuleId": 9,
      "outputId": 2,
      "inputModuleId": 88,
      "inputId": 8,
      "color": "#0c8e15"
    },
    {
      "id": 179,
      "outputModuleId": 9,
      "outputId": 1,
      "inputModuleId": 73,
      "inputId": 0,
      "color": "#0c8e15"
    }
  ]
}