{
  "version": "1.1.6",
  "modules": [
    {
      "id": 1,
      "plugin": "Core",
      "version": "1.1.6",
      "model": "AudioInterface",
      "params": [],
      "rightModuleId": 8,
      "data": {
        "audio": {
          "driver": 5,
          "deviceName": "Apple Inc.: MacBook Pro Speakers",
          "offset": 0,
          "maxChannels": 8,
          "sampleRate": 44100,
          "blockSize": 256
        }
      },
      "pos": [
        174,
        0
      ]
    },
    {
      "id": 7,
      "plugin": "Fundamental",
      "version": "1.4.0",
      "model": "Scope",
      "params": [
        {
          "id": 0,
          "value": 0.0
        },
        {
          "id": 1,
          "value": 0.0
        },
        {
          "id": 2,
          "value": 0.0
        },
        {
          "id": 3,
          "value": 0.0
        },
        {
          "id": 4,
          "value": 7.95499849
        },
        {
          "id": 5,
          "value": 0.0
        },
        {
          "id": 6,
          "value": 0.0
        },
        {
          "id": 7,
          "value": 0.0
        }
      ],
      "data": {
        "lissajous": 0,
        "external": 0
      },
      "pos": [
        169,
        2
      ]
    },
    {
      "id": 8,
      "plugin": "Core",
      "version": "1.1.6",
      "model": "Notes",
      "params": [],
      "leftModuleId": 1,
      "text": "Demo patch instructions:\n\n1. Choose an audio driver and device in the AUDIO-8 module.\n\n2. Use the QWERTY and ZXCVB rows of your keyboard to generate MIDI notes, which are converted to 1V/oct and GATE signals.\n\n3. Drag knobs up/down. Hold Ctrl (Cmd on Mac) while dragging to fine-tune. Right-click knobs to edit, or double-click to initialize.\n\n4. Drag ports to create and move cables. Stack multiple cables on outputs by holding Ctrl (Cmd on Mac) and dragging from an output.\n\n5. Right-click on an empty rack space to add new modules.",
      "pos": [
        184,
        0
      ]
    },
    {
      "id": 10,
      "plugin": "AudibleInstruments",
      "version": "1.5.0",
      "model": "Braids",
      "params": [
        {
          "id": 0,
          "value": 0.0
        },
        {
          "id": 1,
          "value": -1.0
        },
        {
          "id": 2,
          "value": 0.0
        },
        {
          "id": 3,
          "value": 0.5
        },
        {
          "id": 4,
          "value": 0.0
        },
        {
          "id": 5,
          "value": 0.5
        },
        {
          "id": 6,
          "value": 0.547500014
        }
      ],
      "leftModuleId": 15,
      "rightModuleId": 27,
      "data": {
        "settings": [
          25,
          0,
          0,
          0,
          0,
          0,
          0,
          0,
          0,
          0,
          0,
          0,
          0,
          0,
          0,
          0,
          0,
          0,
          0,
          0
        ],
        "lowCpu": false
      },
      "pos": [
        86,
        1
      ]
    },
    {
      "id": 11,
      "plugin": "AudibleInstruments",
      "version": "1.5.0",
      "model": "Braids",
      "params": [
        {
          "id": 0,
          "value": 0.0
        },
        {
          "id": 1,
          "value": -1.0
        },
        {
          "id": 2,
          "value": 0.0
        },
        {
          "id": 3,
          "value": 0.5
        },
        {
          "id": 4,
          "value": 0.0
        },
        {
          "id": 5,
          "value": 0.5
        },
        {
          "id": 6,
          "value": 0.547500014
        }
      ],
      "leftModuleId": 46,
      "rightModuleId": 13,
      "data": {
        "settings": [
          25,
          0,
          0,
          0,
          0,
          0,
          0,
          0,
          0,
          0,
          0,
          0,
          0,
          0,
          0,
          0,
          0,
          0,
          0,
          0
        ],
        "lowCpu": false
      },
      "pos": [
        70,
        2
      ]
    },
    {
      "id": 12,
      "plugin": "Fundamental",
      "version": "1.4.0",
      "model": "Scope",
      "params": [
        {
          "id": 0,
          "value": 3.0
        },
        {
          "id": 1,
          "value": 0.0
        },
        {
          "id": 2,
          "value": 3.0
        },
        {
          "id": 3,
          "value": 0.0
        },
        {
          "id": 4,
          "value": 7.79000092
        },
        {
          "id": 5,
          "value": 0.0
        },
        {
          "id": 6,
          "value": 0.0
        },
        {
          "id": 7,
          "value": 0.0
        }
      ],
      "rightModuleId": 9,
      "data": {
        "lissajous": 0,
        "external": 0
      },
      "pos": [
        6,
        0
      ]
    },
    {
      "id": 13,
      "plugin": "AudibleInstruments",
      "version": "1.5.0",
      "model": "Braids",
      "params": [
        {
          "id": 0,
          "value": 0.0
        },
        {
          "id": 1,
          "value": -1.0
        },
        {
          "id": 2,
          "value": 0.0
        },
        {
          "id": 3,
          "value": 0.5
        },
        {
          "id": 4,
          "value": 0.0
        },
        {
          "id": 5,
          "value": 0.5
        },
        {
          "id": 6,
          "value": 0.547500014
        }
      ],
      "leftModuleId": 11,
      "data": {
        "settings": [
          25,
          0,
          0,
          0,
          0,
          0,
          0,
          0,
          0,
          0,
          0,
          0,
          0,
          0,
          0,
          0,
          0,
          0,
          0,
          0
        ],
        "lowCpu": false
      },
      "pos": [
        86,
        2
      ]
    },
    {
      "id": 15,
      "plugin": "AudibleInstruments",
      "version": "1.5.0",
      "model": "Braids",
      "params": [
        {
          "id": 0,
          "value": 0.0
        },
        {
          "id": 1,
          "value": -1.0
        },
        {
          "id": 2,
          "value": 0.0
        },
        {
          "id": 3,
          "value": 0.5
        },
        {
          "id": 4,
          "value": 0.0
        },
        {
          "id": 5,
          "value": 0.5
        },
        {
          "id": 6,
          "value": 0.547500074
        }
      ],
      "leftModuleId": 44,
      "rightModuleId": 10,
      "data": {
        "settings": [
          25,
          0,
          0,
          0,
          0,
          0,
          0,
          0,
          0,
          0,
          0,
          0,
          0,
          0,
          0,
          0,
          0,
          0,
          0,
          0
        ],
        "lowCpu": false
      },
      "pos": [
        70,
        1
      ]
    },
    {
      "id": 17,
      "plugin": "AudibleInstruments",
      "version": "1.5.0",
      "model": "Braids",
      "params": [
        {
          "id": 0,
          "value": -0.213
        },
        {
          "id": 1,
          "value": -3.18400002
        },
        {
          "id": 2,
          "value": 0.0
        },
        {
          "id": 3,
          "value": 0.5
        },
        {
          "id": 4,
          "value": 0.0
        },
        {
          "id": 5,
          "value": 0.5
        },
        {
          "id": 6,
          "value": 0.524999857
        }
      ],
      "data": {
        "settings": [
          24,
          0,
          0,
          0,
          0,
          0,
          0,
          0,
          0,
          0,
          0,
          0,
          0,
          0,
          0,
          0,
          0,
          0,
          0,
          0
        ],
        "lowCpu": false
      },
      "pos": [
        108,
        3
      ]
    },
    {
      "id": 23,
      "plugin": "Fundamental",
      "version": "1.4.0",
      "model": "Scope",
      "params": [
        {
          "id": 0,
          "value": 0.0
        },
        {
          "id": 1,
          "value": 0.0
        },
        {
          "id": 2,
          "value": 0.0
        },
        {
          "id": 3,
          "value": 0.0
        },
        {
          "id": 4,
          "value": 8.08500099
        },
        {
          "id": 5,
          "value": 0.0
        },
        {
          "id": 6,
          "value": 0.0
        },
        {
          "id": 7,
          "value": 0.0
        }
      ],
      "leftModuleId": 41,
      "rightModuleId": 24,
      "data": {
        "lissajous": 0,
        "external": 0
      },
      "pos": [
        124,
        1
      ]
    },
    {
      "id": 24,
      "plugin": "Fundamental",
      "version": "1.4.0",
      "model": "Scope",
      "params": [
        {
          "id": 0,
          "value": 0.0
        },
        {
          "id": 1,
          "value": 0.0
        },
        {
          "id": 2,
          "value": 0.0
        },
        {
          "id": 3,
          "value": 0.0
        },
        {
          "id": 4,
          "value": 8.45000076
        },
        {
          "id": 5,
          "value": 0.0
        },
        {
          "id": 6,
          "value": 0.0
        },
        {
          "id": 7,
          "value": 0.0
        }
      ],
      "leftModuleId": 23,
      "rightModuleId": 71,
      "data": {
        "lissajous": 0,
        "external": 0
      },
      "pos": [
        137,
        1
      ]
    },
    {
      "id": 25,
      "plugin": "MindMeldModular",
      "version": "1.1.14",
      "model": "MixMaster",
      "params": [
        {
          "id": 0,
          "value": 0.77485162
        },
        {
          "id": 1,
          "value": 0.532946706
        },
        {
          "id": 2,
          "value": 0.600982308
        },
        {
          "id": 3,
          "value": 0.608541846
        },
        {
          "id": 4,
          "value": 0.376339346
        },
        {
          "id": 5,
          "value": 1.0
        },
        {
          "id": 6,
          "value": 1.0
        },
        {
          "id": 7,
          "value": 1.0
        },
        {
          "id": 8,
          "value": 1.0
        },
        {
          "id": 9,
          "value": 1.0
        },
        {
          "id": 10,
          "value": 1.0
        },
        {
          "id": 11,
          "value": 1.0
        },
        {
          "id": 12,
          "value": 1.0
        },
        {
          "id": 13,
          "value": 1.0
        },
        {
          "id": 14,
          "value": 1.0
        },
        {
          "id": 15,
          "value": 1.0
        },
        {
          "id": 16,
          "value": 1.0
        },
        {
          "id": 17,
          "value": 1.0
        },
        {
          "id": 18,
          "value": 1.0
        },
        {
          "id": 19,
          "value": 1.0
        },
        {
          "id": 20,
          "value": 0.5
        },
        {
          "id": 21,
          "value": 0.5
        },
        {
          "id": 22,
          "value": 0.5
        },
        {
          "id": 23,
          "value": 0.5
        },
        {
          "id": 24,
          "value": 0.5
        },
        {
          "id": 25,
          "value": 0.5
        },
        {
          "id": 26,
          "value": 0.5
        },
        {
          "id": 27,
          "value": 0.5
        },
        {
          "id": 28,
          "value": 0.5
        },
        {
          "id": 29,
          "value": 0.5
        },
        {
          "id": 30,
          "value": 0.5
        },
        {
          "id": 31,
          "value": 0.5
        },
        {
          "id": 32,
          "value": 0.5
        },
        {
          "id": 33,
          "value": 0.5
        },
        {
          "id": 34,
          "value": 0.5
        },
        {
          "id": 35,
          "value": 0.5
        },
        {
          "id": 36,
          "value": 0.5
        },
        {
          "id": 37,
          "value": 0.5
        },
        {
          "id": 38,
          "value": 0.5
        },
        {
          "id": 39,
          "value": 0.5
        },
        {
          "id": 40,
          "value": 0.0
        },
        {
          "id": 41,
          "value": 0.0
        },
        {
          "id": 42,
          "value": 0.0
        },
        {
          "id": 43,
          "value": 0.0
        },
        {
          "id": 44,
          "value": 0.0
        },
        {
          "id": 45,
          "value": 0.0
        },
        {
          "id": 46,
          "value": 0.0
        },
        {
          "id": 47,
          "value": 0.0
        },
        {
          "id": 48,
          "value": 0.0
        },
        {
          "id": 49,
          "value": 0.0
        },
        {
          "id": 50,
          "value": 0.0
        },
        {
          "id": 51,
          "value": 0.0
        },
        {
          "id": 52,
          "value": 0.0
        },
        {
          "id": 53,
          "value": 0.0
        },
        {
          "id": 54,
          "value": 0.0
        },
        {
          "id": 55,
          "value": 0.0
        },
        {
          "id": 56,
          "value": 0.0
        },
        {
          "id": 57,
          "value": 0.0
        },
        {
          "id": 58,
          "value": 0.0
        },
        {
          "id": 59,
          "value": 0.0
        },
        {
          "id": 60,
          "value": 0.0
        },
        {
          "id": 61,
          "value": 0.0
        },
        {
          "id": 62,
          "value": 0.0
        },
        {
          "id": 63,
          "value": 0.0
        },
        {
          "id": 64,
          "value": 0.0
        },
        {
          "id": 65,
          "value": 0.0
        },
        {
          "id": 66,
          "value": 0.0
        },
        {
          "id": 67,
          "value": 0.0
        },
        {
          "id": 68,
          "value": 0.0
        },
        {
          "id": 69,
          "value": 0.0
        },
        {
          "id": 70,
          "value": 0.0
        },
        {
          "id": 71,
          "value": 0.0
        },
        {
          "id": 72,
          "value": 0.0
        },
        {
          "id": 73,
          "value": 0.0
        },
        {
          "id": 74,
          "value": 0.0
        },
        {
          "id": 75,
          "value": 0.0
        },
        {
          "id": 76,
          "value": 0.0
        },
        {
          "id": 77,
          "value": 0.0
        },
        {
          "id": 78,
          "value": 0.0
        },
        {
          "id": 79,
          "value": 0.0
        },
        {
          "id": 80,
          "value": 0.0
        },
        {
          "id": 81,
          "value": 0.0
        },
        {
          "id": 82,
          "value": 0.0
        },
        {
          "id": 83,
          "value": 0.718154967
        },
        {
          "id": 84,
          "value": 0.0
        },
        {
          "id": 85,
          "value": 0.0
        },
        {
          "id": 86,
          "value": 0.0
        },
        {
          "id": 87,
          "value": 0.0
        },
        {
          "id": 88,
          "value": 0.0
        },
        {
          "id": 89,
          "value": 0.0
        },
        {
          "id": 90,
          "value": 0.0
        },
        {
          "id": 91,
          "value": 0.0
        },
        {
          "id": 92,
          "value": 0.0
        },
        {
          "id": 93,
          "value": 0.0
        },
        {
          "id": 94,
          "value": 0.0
        },
        {
          "id": 95,
          "value": 0.0
        },
        {
          "id": 96,
          "value": 0.0
        },
        {
          "id": 97,
          "value": 0.0
        },
        {
          "id": 98,
          "value": 0.0
        },
        {
          "id": 99,
          "value": 0.0
        },
        {
          "id": 100,
          "value": 13.0
        },
        {
          "id": 101,
          "value": 13.0
        },
        {
          "id": 102,
          "value": 13.0
        },
        {
          "id": 103,
          "value": 13.0
        },
        {
          "id": 104,
          "value": 13.0
        },
        {
          "id": 105,
          "value": 13.0
        },
        {
          "id": 106,
          "value": 13.0
        },
        {
          "id": 107,
          "value": 13.0
        },
        {
          "id": 108,
          "value": 13.0
        },
        {
          "id": 109,
          "value": 13.0
        },
        {
          "id": 110,
          "value": 13.0
        },
        {
          "id": 111,
          "value": 13.0
        },
        {
          "id": 112,
          "value": 13.0
        },
        {
          "id": 113,
          "value": 13.0
        },
        {
          "id": 114,
          "value": 13.0
        },
        {
          "id": 115,
          "value": 13.0
        },
        {
          "id": 116,
          "value": 20010.0
        },
        {
          "id": 117,
          "value": 20010.0
        },
        {
          "id": 118,
          "value": 20010.0
        },
        {
          "id": 119,
          "value": 20010.0
        },
        {
          "id": 120,
          "value": 20010.0
        },
        {
          "id": 121,
          "value": 20010.0
        },
        {
          "id": 122,
          "value": 20010.0
        },
        {
          "id": 123,
          "value": 20010.0
        },
        {
          "id": 124,
          "value": 20010.0
        },
        {
          "id": 125,
          "value": 20010.0
        },
        {
          "id": 126,
          "value": 20010.0
        },
        {
          "id": 127,
          "value": 20010.0
        },
        {
          "id": 128,
          "value": 20010.0
        },
        {
          "id": 129,
          "value": 20010.0
        },
        {
          "id": 130,
          "value": 20010.0
        },
        {
          "id": 131,
          "value": 20010.0
        },
        {
          "id": 132,
          "value": 13.0
        },
        {
          "id": 133,
          "value": 13.0
        },
        {
          "id": 134,
          "value": 13.0
        },
        {
          "id": 135,
          "value": 13.0
        },
        {
          "id": 136,
          "value": 20010.0
        },
        {
          "id": 137,
          "value": 20010.0
        },
        {
          "id": 138,
          "value": 20010.0
        },
        {
          "id": 139,
          "value": 20010.0
        }
      ],
      "data": {
        "trackLabels": "-01--02--03--04--05--06--07--08--09--10--11--12--13--14--15--16-GRP1GRP2GRP3GRP4",
        "panLawMono": 1,
        "panLawStereo": 1,
        "directOutsMode": 3,
        "directOutsSkipGroupedTracks": 0,
        "auxSendsMode": 3,
        "groupsControlTrackSendLevels": 0,
        "auxReturnsMutedWhenMainSolo": 0,
        "auxReturnsSolosMuteDry": 0,
        "chainMode": 0,
        "colorAndCloak": 117440512,
        "symmetricalFade": false,
        "fadeCvOutsWithVolCv": false,
        "linkBitMask": 0,
        "filterPos": 1,
        "groupedAuxReturnFeedbackProtection": 1,
        "ecoMode": 65535,
        "faders": [
          0.77485162,
          0.532946706,
          0.600982308,
          0.608541846,
          0.376339346,
          1.0,
          1.0,
          1.0,
          1.0,
          1.0,
          1.0,
          1.0,
          1.0,
          1.0,
          1.0,
          1.0,
          1.0,
          1.0,
          1.0,
          1.0
        ],
        "momentaryCvButtons": 1,
        "masterFaderScalesSends": 0,
        "linearVolCvInputs": 0,
        "id_t0_gainAdjust": 1.0,
        "id_t0_fadeRate": 0.0,
        "id_t0_fadeProfile": 0.0,
        "id_t0_directOutsMode": 3,
        "id_t0_auxSendsMode": 3,
        "id_t0_panLawStereo": 1,
        "id_t0_vuColorThemeLocal": 0,
        "id_t0_filterPos": 1,
        "id_t0_dispColorLocal": 0,
        "id_t0_polyStereo": 0,
        "id_t0_panCvLevel": 1.0,
        "id_t0_stereoWidth": 1.0,
        "id_t0_invertInput": 0,
        "id_t1_gainAdjust": 1.0,
        "id_t1_fadeRate": 0.0,
        "id_t1_fadeProfile": 0.0,
        "id_t1_directOutsMode": 3,
        "id_t1_auxSendsMode": 3,
        "id_t1_panLawStereo": 1,
        "id_t1_vuColorThemeLocal": 0,
        "id_t1_filterPos": 1,
        "id_t1_dispColorLocal": 0,
        "id_t1_polyStereo": 0,
        "id_t1_panCvLevel": 1.0,
        "id_t1_stereoWidth": 1.0,
        "id_t1_invertInput": 0,
        "id_t2_gainAdjust": 1.0,
        "id_t2_fadeRate": 0.0,
        "id_t2_fadeProfile": 0.0,
        "id_t2_directOutsMode": 3,
        "id_t2_auxSendsMode": 3,
        "id_t2_panLawStereo": 1,
        "id_t2_vuColorThemeLocal": 0,
        "id_t2_filterPos": 1,
        "id_t2_dispColorLocal": 0,
        "id_t2_polyStereo": 0,
        "id_t2_panCvLevel": 1.0,
        "id_t2_stereoWidth": 1.0,
        "id_t2_invertInput": 0,
        "id_t3_gainAdjust": 1.0,
        "id_t3_fadeRate": 0.0,
        "id_t3_fadeProfile": 0.0,
        "id_t3_directOutsMode": 3,
        "id_t3_auxSendsMode": 3,
        "id_t3_panLawStereo": 1,
        "id_t3_vuColorThemeLocal": 0,
        "id_t3_filterPos": 1,
        "id_t3_dispColorLocal": 0,
        "id_t3_polyStereo": 0,
        "id_t3_panCvLevel": 1.0,
        "id_t3_stereoWidth": 1.0,
        "id_t3_invertInput": 0,
        "id_t4_gainAdjust": 1.0,
        "id_t4_fadeRate": 0.0,
        "id_t4_fadeProfile": 0.0,
        "id_t4_directOutsMode": 3,
        "id_t4_auxSendsMode": 3,
        "id_t4_panLawStereo": 1,
        "id_t4_vuColorThemeLocal": 0,
        "id_t4_filterPos": 1,
        "id_t4_dispColorLocal": 0,
        "id_t4_polyStereo": 0,
        "id_t4_panCvLevel": 1.0,
        "id_t4_stereoWidth": 1.0,
        "id_t4_invertInput": 0,
        "id_t5_gainAdjust": 1.0,
        "id_t5_fadeRate": 0.0,
        "id_t5_fadeProfile": 0.0,
        "id_t5_directOutsMode": 3,
        "id_t5_auxSendsMode": 3,
        "id_t5_panLawStereo": 1,
        "id_t5_vuColorThemeLocal": 0,
        "id_t5_filterPos": 1,
        "id_t5_dispColorLocal": 0,
        "id_t5_polyStereo": 0,
        "id_t5_panCvLevel": 1.0,
        "id_t5_stereoWidth": 1.0,
        "id_t5_invertInput": 0,
        "id_t6_gainAdjust": 1.0,
        "id_t6_fadeRate": 0.0,
        "id_t6_fadeProfile": 0.0,
        "id_t6_directOutsMode": 3,
        "id_t6_auxSendsMode": 3,
        "id_t6_panLawStereo": 1,
        "id_t6_vuColorThemeLocal": 0,
        "id_t6_filterPos": 1,
        "id_t6_dispColorLocal": 0,
        "id_t6_polyStereo": 0,
        "id_t6_panCvLevel": 1.0,
        "id_t6_stereoWidth": 1.0,
        "id_t6_invertInput": 0,
        "id_t7_gainAdjust": 1.0,
        "id_t7_fadeRate": 0.0,
        "id_t7_fadeProfile": 0.0,
        "id_t7_directOutsMode": 3,
        "id_t7_auxSendsMode": 3,
        "id_t7_panLawStereo": 1,
        "id_t7_vuColorThemeLocal": 0,
        "id_t7_filterPos": 1,
        "id_t7_dispColorLocal": 0,
        "id_t7_polyStereo": 0,
        "id_t7_panCvLevel": 1.0,
        "id_t7_stereoWidth": 1.0,
        "id_t7_invertInput": 0,
        "id_t8_gainAdjust": 1.0,
        "id_t8_fadeRate": 0.0,
        "id_t8_fadeProfile": 0.0,
        "id_t8_directOutsMode": 3,
        "id_t8_auxSendsMode": 3,
        "id_t8_panLawStereo": 1,
        "id_t8_vuColorThemeLocal": 0,
        "id_t8_filterPos": 1,
        "id_t8_dispColorLocal": 0,
        "id_t8_polyStereo": 0,
        "id_t8_panCvLevel": 1.0,
        "id_t8_stereoWidth": 1.0,
        "id_t8_invertInput": 0,
        "id_t9_gainAdjust": 1.0,
        "id_t9_fadeRate": 0.0,
        "id_t9_fadeProfile": 0.0,
        "id_t9_directOutsMode": 3,
        "id_t9_auxSendsMode": 3,
        "id_t9_panLawStereo": 1,
        "id_t9_vuColorThemeLocal": 0,
        "id_t9_filterPos": 1,
        "id_t9_dispColorLocal": 0,
        "id_t9_polyStereo": 0,
        "id_t9_panCvLevel": 1.0,
        "id_t9_stereoWidth": 1.0,
        "id_t9_invertInput": 0,
        "id_t10_gainAdjust": 1.0,
        "id_t10_fadeRate": 0.0,
        "id_t10_fadeProfile": 0.0,
        "id_t10_directOutsMode": 3,
        "id_t10_auxSendsMode": 3,
        "id_t10_panLawStereo": 1,
        "id_t10_vuColorThemeLocal": 0,
        "id_t10_filterPos": 1,
        "id_t10_dispColorLocal": 0,
        "id_t10_polyStereo": 0,
        "id_t10_panCvLevel": 1.0,
        "id_t10_stereoWidth": 1.0,
        "id_t10_invertInput": 0,
        "id_t11_gainAdjust": 1.0,
        "id_t11_fadeRate": 0.0,
        "id_t11_fadeProfile": 0.0,
        "id_t11_directOutsMode": 3,
        "id_t11_auxSendsMode": 3,
        "id_t11_panLawStereo": 1,
        "id_t11_vuColorThemeLocal": 0,
        "id_t11_filterPos": 1,
        "id_t11_dispColorLocal": 0,
        "id_t11_polyStereo": 0,
        "id_t11_panCvLevel": 1.0,
        "id_t11_stereoWidth": 1.0,
        "id_t11_invertInput": 0,
        "id_t12_gainAdjust": 1.0,
        "id_t12_fadeRate": 0.0,
        "id_t12_fadeProfile": 0.0,
        "id_t12_directOutsMode": 3,
        "id_t12_auxSendsMode": 3,
        "id_t12_panLawStereo": 1,
        "id_t12_vuColorThemeLocal": 0,
        "id_t12_filterPos": 1,
        "id_t12_dispColorLocal": 0,
        "id_t12_polyStereo": 0,
        "id_t12_panCvLevel": 1.0,
        "id_t12_stereoWidth": 1.0,
        "id_t12_invertInput": 0,
        "id_t13_gainAdjust": 1.0,
        "id_t13_fadeRate": 0.0,
        "id_t13_fadeProfile": 0.0,
        "id_t13_directOutsMode": 3,
        "id_t13_auxSendsMode": 3,
        "id_t13_panLawStereo": 1,
        "id_t13_vuColorThemeLocal": 0,
        "id_t13_filterPos": 1,
        "id_t13_dispColorLocal": 0,
        "id_t13_polyStereo": 0,
        "id_t13_panCvLevel": 1.0,
        "id_t13_stereoWidth": 1.0,
        "id_t13_invertInput": 0,
        "id_t14_gainAdjust": 1.0,
        "id_t14_fadeRate": 0.0,
        "id_t14_fadeProfile": 0.0,
        "id_t14_directOutsMode": 3,
        "id_t14_auxSendsMode": 3,
        "id_t14_panLawStereo": 1,
        "id_t14_vuColorThemeLocal": 0,
        "id_t14_filterPos": 1,
        "id_t14_dispColorLocal": 0,
        "id_t14_polyStereo": 0,
        "id_t14_panCvLevel": 1.0,
        "id_t14_stereoWidth": 1.0,
        "id_t14_invertInput": 0,
        "id_t15_gainAdjust": 1.0,
        "id_t15_fadeRate": 0.0,
        "id_t15_fadeProfile": 0.0,
        "id_t15_directOutsMode": 3,
        "id_t15_auxSendsMode": 3,
        "id_t15_panLawStereo": 1,
        "id_t15_vuColorThemeLocal": 0,
        "id_t15_filterPos": 1,
        "id_t15_dispColorLocal": 0,
        "id_t15_polyStereo": 0,
        "id_t15_panCvLevel": 1.0,
        "id_t15_stereoWidth": 1.0,
        "id_t15_invertInput": 0,
        "id_g0_fadeRate": 0.0,
        "id_g0_fadeProfile": 0.0,
        "id_g0_directOutsMode": 3,
        "id_g0_auxSendsMode": 3,
        "id_g0_panLawStereo": 1,
        "id_g0_vuColorThemeLocal": 0,
        "id_g0_filterPos": 1,
        "id_g0_dispColorLocal": 0,
        "id_g0_panCvLevel": 1.0,
        "id_g0_stereoWidth": 1.0,
        "id_g1_fadeRate": 0.0,
        "id_g1_fadeProfile": 0.0,
        "id_g1_directOutsMode": 3,
        "id_g1_auxSendsMode": 3,
        "id_g1_panLawStereo": 1,
        "id_g1_vuColorThemeLocal": 0,
        "id_g1_filterPos": 1,
        "id_g1_dispColorLocal": 0,
        "id_g1_panCvLevel": 1.0,
        "id_g1_stereoWidth": 1.0,
        "id_g2_fadeRate": 0.0,
        "id_g2_fadeProfile": 0.0,
        "id_g2_directOutsMode": 3,
        "id_g2_auxSendsMode": 3,
        "id_g2_panLawStereo": 1,
        "id_g2_vuColorThemeLocal": 0,
        "id_g2_filterPos": 1,
        "id_g2_dispColorLocal": 0,
        "id_g2_panCvLevel": 1.0,
        "id_g2_stereoWidth": 1.0,
        "id_g3_fadeRate": 0.0,
        "id_g3_fadeProfile": 0.0,
        "id_g3_directOutsMode": 3,
        "id_g3_auxSendsMode": 3,
        "id_g3_panLawStereo": 1,
        "id_g3_vuColorThemeLocal": 0,
        "id_g3_filterPos": 1,
        "id_g3_dispColorLocal": 0,
        "id_g3_panCvLevel": 1.0,
        "id_g3_stereoWidth": 1.0,
        "dcBlock": false,
        "clipping": 0,
        "fadeRate": 0.0,
        "fadeProfile": 0.0,
        "vuColorThemeLocal": 0,
        "dispColorLocal": 0,
        "chainOnly": 0,
        "dimGain": 0.251190007,
        "masterLabel": "MASTER"
      },
      "pos": [
        112,
        0
      ]
    },
    {
      "id": 26,
      "plugin": "AudibleInstruments",
      "version": "1.5.0",
      "model": "Veils",
      "params": [
        {
          "id": 0,
          "value": 1.0
        },
        {
          "id": 1,
          "value": 1.0
        },
        {
          "id": 2,
          "value": 1.0
        },
        {
          "id": 3,
          "value": 0.990999997
        },
        {
          "id": 4,
          "value": 1.0
        },
        {
          "id": 5,
          "value": 1.0
        },
        {
          "id": 6,
          "value": 1.0
        },
        {
          "id": 7,
          "value": 1.0
        }
      ],
      "rightModuleId": 56,
      "pos": [
        54,
        3
      ]
    },
    {
      "id": 27,
      "plugin": "AudibleInstruments",
      "version": "1.5.0",
      "model": "Veils",
      "params": [
        {
          "id": 0,
          "value": 1.0
        },
        {
          "id": 1,
          "value": 1.0
        },
        {
          "id": 2,
          "value": 1.0
        },
        {
          "id": 3,
          "value": 1.0
        },
        {
          "id": 4,
          "value": 1.0
        },
        {
          "id": 5,
          "value": 1.0
        },
        {
          "id": 6,
          "value": 1.0
        },
        {
          "id": 7,
          "value": 1.0
        }
      ],
      "leftModuleId": 10,
      "rightModuleId": 40,
      "pos": [
        102,
        1
      ]
    },
    {
      "id": 34,
      "plugin": "ImpromptuModular",
      "version": "1.1.12",
      "model": "Clocked",
      "params": [
        {
          "id": 0,
          "value": 120.0
        },
        {
          "id": 1,
          "value": 5.0
        },
        {
          "id": 2,
          "value": 0.0
        },
        {
          "id": 3,
          "value": 0.0
        },
        {
          "id": 4,
          "value": 0.0
        },
        {
          "id": 5,
          "value": 0.0
        },
        {
          "id": 6,
          "value": 0.0
        },
        {
          "id": 7,
          "value": 0.0
        },
        {
          "id": 8,
          "value": 0.5
        },
        {
          "id": 9,
          "value": 0.5
        },
        {
          "id": 10,
          "value": 0.5
        },
        {
          "id": 11,
          "value": 0.5
        },
        {
          "id": 12,
          "value": 0.0
        },
        {
          "id": 13,
          "value": 0.0
        },
        {
          "id": 14,
          "value": 0.0
        },
        {
          "id": 15,
          "value": 0.0
        },
        {
          "id": 16,
          "value": 0.0
        },
        {
          "id": 17,
          "value": 0.0
        },
        {
          "id": 18,
          "value": 0.0
        },
        {
          "id": 19,
          "value": 0.0
        }
      ],
      "leftModuleId": 35,
      "data": {
        "panelTheme": 0,
        "running": false,
        "displayDelayNoteMode": true,
        "bpmDetectionMode": false,
        "resetOnStartStop": 0,
        "ppqn": 4,
        "resetClockOutputsHigh": true,
        "momentaryRunInput": true,
        "clockMaster": false
      },
      "pos": [
        50,
        0
      ]
    },
    {
      "id": 35,
      "plugin": "AS",
      "version": "1.0.4",
      "model": "AtNuVrTr",
      "params": [
        {
          "id": 0,
          "value": 0.0
        },
        {
          "id": 1,
          "value": -0.840000153
        },
        {
          "id": 2,
          "value": 1.0
        },
        {
          "id": 3,
          "value": 1.88999987
        }
      ],
      "leftModuleId": 9,
      "rightModuleId": 34,
      "pos": [
        45,
        0
      ]
    },
    {
      "id": 37,
      "plugin": "RJModules",
      "version": "1.7.2",
      "model": "Euclidian",
      "params": [
        {
          "id": 0,
          "value": 5.0
        },
        {
          "id": 1,
          "value": 12.0
        },
        {
          "id": 2,
          "value": 0.0
        },
        {
          "id": 3,
          "value": 1.0
        }
      ],
      "leftModuleId": 61,
      "rightModuleId": 44,
      "data": {},
      "pos": [
        50,
        1
      ]
    },
    {
      "id": 40,
      "plugin": "Bogaudio",
      "version": "1.1.38",
      "model": "Bogaudio-Vish",
      "params": [
        {
          "id": 0,
          "value": 0.685349941
        },
        {
          "id": 1,
          "value": -0.337000012
        },
        {
          "id": 2,
          "value": 0.547722578
        },
        {
          "id": 3,
          "value": -0.870999932
        },
        {
          "id": 4,
          "value": 0.316227794
        },
        {
          "id": 5,
          "value": 1.0
        },
        {
          "id": 6,
          "value": 0.0
        }
      ],
      "leftModuleId": 27,
      "rightModuleId": 41,
      "data": {
        "rise_shape_mode": "inverted",
        "fall_shape_mode": "on"
      },
      "pos": [
        114,
        1
      ]
    },
    {
      "id": 41,
      "plugin": "Bogaudio",
      "version": "1.1.38",
      "model": "Bogaudio-Vish",
      "params": [
        {
          "id": 0,
          "value": 0.581849992
        },
        {
          "id": 1,
          "value": -1.0
        },
        {
          "id": 2,
          "value": 0.547722578
        },
        {
          "id": 3,
          "value": -0.867999911
        },
        {
          "id": 4,
          "value": 0.316227794
        },
        {
          "id": 5,
          "value": 1.0
        },
        {
          "id": 6,
          "value": 0.0
        }
      ],
      "leftModuleId": 40,
      "rightModuleId": 23,
      "data": {
        "rise_shape_mode": "inverted",
        "fall_shape_mode": "on"
      },
      "pos": [
        119,
        1
      ]
    },
    {
      "id": 42,
      "plugin": "Bogaudio",
      "version": "1.1.38",
      "model": "Bogaudio-Vish",
      "params": [
        {
          "id": 0,
          "value": 0.610350013
        },
        {
          "id": 1,
          "value": -1.0
        },
        {
          "id": 2,
          "value": 0.547722578
        },
        {
          "id": 3,
          "value": -0.867999911
        },
        {
          "id": 4,
          "value": 0.316227794
        },
        {
          "id": 5,
          "value": 1.0
        },
        {
          "id": 6,
          "value": 0.0
        }
      ],
      "rightModuleId": 43,
      "data": {
        "rise_shape_mode": "inverted",
        "fall_shape_mode": "on"
      },
      "pos": [
        114,
        2
      ]
    },
    {
      "id": 43,
      "plugin": "Bogaudio",
      "version": "1.1.38",
      "model": "Bogaudio-Vish",
      "params": [
        {
          "id": 0,
          "value": 0.614850044
        },
        {
          "id": 1,
          "value": -1.0
        },
        {
          "id": 2,
          "value": 0.547722578
        },
        {
          "id": 3,
          "value": -0.867999911
        },
        {
          "id": 4,
          "value": 0.316227794
        },
        {
          "id": 5,
          "value": 1.0
        },
        {
          "id": 6,
          "value": 0.0
        }
      ],
      "leftModuleId": 42,
      "rightModuleId": 67,
      "data": {
        "rise_shape_mode": "inverted",
        "fall_shape_mode": "on"
      },
      "pos": [
        119,
        2
      ]
    },
    {
      "id": 44,
      "plugin": "RJModules",
      "version": "1.7.2",
      "model": "Euclidian",
      "params": [
        {
          "id": 0,
          "value": 3.0
        },
        {
          "id": 1,
          "value": 15.0
        },
        {
          "id": 2,
          "value": 2.0
        },
        {
          "id": 3,
          "value": 1.0
        }
      ],
      "leftModuleId": 37,
      "rightModuleId": 15,
      "data": {},
      "pos": [
        60,
        1
      ]
    },
    {
      "id": 45,
      "plugin": "RJModules",
      "version": "1.7.2",
      "model": "Euclidian",
      "params": [
        {
          "id": 0,
          "value": 6.0
        },
        {
          "id": 1,
          "value": 21.0
        },
        {
          "id": 2,
          "value": 9.0
        },
        {
          "id": 3,
          "value": 1.0
        }
      ],
      "leftModuleId": 64,
      "rightModuleId": 46,
      "data": {},
      "pos": [
        50,
        2
      ]
    },
    {
      "id": 46,
      "plugin": "RJModules",
      "version": "1.7.2",
      "model": "Euclidian",
      "params": [
        {
          "id": 0,
          "value": 3.0
        },
        {
          "id": 1,
          "value": 7.0
        },
        {
          "id": 2,
          "value": 11.0
        },
        {
          "id": 3,
          "value": 1.0
        }
      ],
      "leftModuleId": 45,
      "rightModuleId": 11,
      "data": {},
      "pos": [
        60,
        2
      ]
    },
    {
      "id": 56,
      "plugin": "JW-Modules",
      "version": "1.0.30",
      "model": "Quantizer",
      "params": [
        {
          "id": 0,
          "value": 0.0
        },
        {
          "id": 1,
          "value": 14.0
        },
        {
          "id": 2,
          "value": 0.0
        }
      ],
      "leftModuleId": 26,
      "rightModuleId": 57,
      "data": {},
      "pos": [
        66,
        3
      ]
    },
    {
      "id": 57,
      "plugin": "JW-Modules",
      "version": "1.0.30",
      "model": "Quantizer",
      "params": [
        {
          "id": 0,
          "value": 0.0
        },
        {
          "id": 1,
          "value": 14.0
        },
        {
          "id": 2,
          "value": 0.0
        }
      ],
      "leftModuleId": 56,
      "rightModuleId": 58,
      "data": {},
      "pos": [
        70,
        3
      ]
    },
    {
      "id": 58,
      "plugin": "JW-Modules",
      "version": "1.0.30",
      "model": "Quantizer",
      "params": [
        {
          "id": 0,
          "value": 0.0
        },
        {
          "id": 1,
          "value": 14.0
        },
        {
          "id": 2,
          "value": 0.0
        }
      ],
      "leftModuleId": 57,
      "rightModuleId": 59,
      "data": {},
      "pos": [
        74,
        3
      ]
    },
    {
      "id": 59,
      "plugin": "JW-Modules",
      "version": "1.0.30",
      "model": "Quantizer",
      "params": [
        {
          "id": 0,
          "value": 0.0
        },
        {
          "id": 1,
          "value": 14.0
        },
        {
          "id": 2,
          "value": 0.0
        }
      ],
      "leftModuleId": 58,
      "data": {},
      "pos": [
        78,
        3
      ]
    },
    {
      "id": 60,
      "plugin": "StellareModular",
      "version": "1.0.0",
      "model": "TuringMachine",
      "params": [
        {
          "id": 0,
          "value": 0.5
        },
        {
          "id": 1,
          "value": 0.5
        },
        {
          "id": 2,
          "value": 0.5
        },
        {
          "id": 3,
          "value": 0.5
        },
        {
          "id": 4,
          "value": 0.5
        },
        {
          "id": 5,
          "value": -0.218999997
        },
        {
          "id": 6,
          "value": 5.0
        },
        {
          "id": 7,
          "value": 0.5
        },
        {
          "id": 8,
          "value": 0.0
        },
        {
          "id": 9,
          "value": 0.0
        },
        {
          "id": 10,
          "value": 0.0
        },
        {
          "id": 11,
          "value": 0.0
        },
        {
          "id": 12,
          "value": 0.0
        }
      ],
      "leftModuleId": 72,
      "rightModuleId": 61,
      "data": {
        "pulses_mode": 0
      },
      "pos": [
        14,
        1
      ]
    },
    {
      "id": 61,
      "plugin": "StellareModular",
      "version": "1.0.0",
      "model": "TuringMachine",
      "params": [
        {
          "id": 0,
          "value": 0.5
        },
        {
          "id": 1,
          "value": 0.5
        },
        {
          "id": 2,
          "value": 0.5
        },
        {
          "id": 3,
          "value": 0.5
        },
        {
          "id": 4,
          "value": 0.5
        },
        {
          "id": 5,
          "value": 0.147
        },
        {
          "id": 6,
          "value": 4.0
        },
        {
          "id": 7,
          "value": 0.5
        },
        {
          "id": 8,
          "value": 0.0
        },
        {
          "id": 9,
          "value": 0.0
        },
        {
          "id": 10,
          "value": 0.0
        },
        {
          "id": 11,
          "value": 0.0
        },
        {
          "id": 12,
          "value": 0.0
        }
      ],
      "leftModuleId": 60,
      "rightModuleId": 37,
      "data": {
        "pulses_mode": 0
      },
      "pos": [
        32,
        1
      ]
    },
    {
      "id": 62,
      "plugin": "AS",
      "version": "1.0.4",
      "model": "AtNuVrTr",
      "params": [
        {
          "id": 0,
          "value": 0.0
        },
        {
          "id": 1,
          "value": 2.98999834
        },
        {
          "id": 2,
          "value": 0.0
        },
        {
          "id": 3,
          "value": 0.0
        }
      ],
      "pos": [
        3,
        3
      ]
    },
    {
      "id": 63,
      "plugin": "StellareModular",
      "version": "1.0.0",
      "model": "TuringMachine",
      "params": [
        {
          "id": 0,
          "value": 0.5
        },
        {
          "id": 1,
          "value": 0.5
        },
        {
          "id": 2,
          "value": 0.5
        },
        {
          "id": 3,
          "value": 0.5
        },
        {
          "id": 4,
          "value": 0.5
        },
        {
          "id": 5,
          "value": 0.542999983
        },
        {
          "id": 6,
          "value": 5.0
        },
        {
          "id": 7,
          "value": 0.5
        },
        {
          "id": 8,
          "value": 0.0
        },
        {
          "id": 9,
          "value": 0.0
        },
        {
          "id": 10,
          "value": 0.0
        },
        {
          "id": 11,
          "value": 0.0
        },
        {
          "id": 12,
          "value": 0.0
        }
      ],
      "rightModuleId": 64,
      "data": {
        "pulses_mode": 0
      },
      "pos": [
        14,
        2
      ]
    },
    {
      "id": 64,
      "plugin": "StellareModular",
      "version": "1.0.0",
      "model": "TuringMachine",
      "params": [
        {
          "id": 0,
          "value": 0.5
        },
        {
          "id": 1,
          "value": 0.5
        },
        {
          "id": 2,
          "value": 0.5
        },
        {
          "id": 3,
          "value": 0.5
        },
        {
          "id": 4,
          "value": 0.5
        },
        {
          "id": 5,
          "value": -0.312000036
        },
        {
          "id": 6,
          "value": 5.0
        },
        {
          "id": 7,
          "value": 0.5
        },
        {
          "id": 8,
          "value": 0.0
        },
        {
          "id": 9,
          "value": 0.0
        },
        {
          "id": 10,
          "value": 0.0
        },
        {
          "id": 11,
          "value": 0.0
        },
        {
          "id": 12,
          "value": 0.0
        }
      ],
      "leftModuleId": 63,
      "rightModuleId": 45,
      "data": {
        "pulses_mode": 0
      },
      "pos": [
        32,
        2
      ]
    },
    {
      "id": 67,
      "plugin": "AudibleInstruments",
      "version": "1.5.0",
      "model": "Tides2",
      "params": [
        {
          "id": 0,
          "value": 0.0
        },
        {
          "id": 1,
          "value": 0.0
        },
        {
          "id": 2,
          "value": 0.0
        },
        {
          "id": 3,
          "value": -35.3279953
        },
        {
          "id": 4,
          "value": 0.5
        },
        {
          "id": 5,
          "value": 0.5
        },
        {
          "id": 6,
          "value": 0.5
        },
        {
          "id": 7,
          "value": 1.0
        },
        {
          "id": 8,
          "value": 0.0
        },
        {
          "id": 9,
          "value": 0.0
        },
        {
          "id": 10,
          "value": 0.0
        },
        {
          "id": 11,
          "value": 0.0
        },
        {
          "id": 12,
          "value": 0.0
        }
      ],
      "leftModuleId": 43,
      "rightModuleId": 68,
      "data": {
        "range": 1,
        "output": 0,
        "ramp": 1
      },
      "pos": [
        124,
        2
      ]
    },
    {
      "id": 68,
      "plugin": "AudibleInstruments",
      "version": "1.5.0",
      "model": "Tides2",
      "params": [
        {
          "id": 0,
          "value": 0.0
        },
        {
          "id": 1,
          "value": 0.0
        },
        {
          "id": 2,
          "value": 0.0
        },
        {
          "id": 3,
          "value": -39.0719986
        },
        {
          "id": 4,
          "value": 0.5
        },
        {
          "id": 5,
          "value": 0.5
        },
        {
          "id": 6,
          "value": 0.5
        },
        {
          "id": 7,
          "value": 1.0
        },
        {
          "id": 8,
          "value": 0.0
        },
        {
          "id": 9,
          "value": 0.0
        },
        {
          "id": 10,
          "value": 0.0
        },
        {
          "id": 11,
          "value": 0.0
        },
        {
          "id": 12,
          "value": 0.0
        }
      ],
      "leftModuleId": 67,
      "rightModuleId": 69,
      "data": {
        "range": 1,
        "output": 0,
        "ramp": 1
      },
      "pos": [
        138,
        2
      ]
    },
    {
      "id": 69,
      "plugin": "AudibleInstruments",
      "version": "1.5.0",
      "model": "Tides2",
      "params": [
        {
          "id": 0,
          "value": 0.0
        },
        {
          "id": 1,
          "value": 0.0
        },
        {
          "id": 2,
          "value": 0.0
        },
        {
          "id": 3,
          "value": -33.3119965
        },
        {
          "id": 4,
          "value": 0.5
        },
        {
          "id": 5,
          "value": 0.5
        },
        {
          "id": 6,
          "value": 0.5
        },
        {
          "id": 7,
          "value": 1.0
        },
        {
          "id": 8,
          "value": 0.0
        },
        {
          "id": 9,
          "value": 0.0
        },
        {
          "id": 10,
          "value": 0.0
        },
        {
          "id": 11,
          "value": 0.0
        },
        {
          "id": 12,
          "value": 0.0
        }
      ],
      "leftModuleId": 68,
      "data": {
        "range": 1,
        "output": 0,
        "ramp": 1
      },
      "pos": [
        152,
        2
      ]
    },
    {
      "id": 70,
      "plugin": "Fundamental",
      "version": "1.4.0",
      "model": "VCA-1",
      "params": [
        {
          "id": 0,
          "value": 1.0
        },
        {
          "id": 1,
          "value": 1.0
        }
      ],
      "pos": [
        17,
        3
      ]
    },
    {
      "id": 71,
      "plugin": "Fundamental",
      "version": "1.4.0",
      "model": "Scope",
      "params": [
        {
          "id": 0,
          "value": 0.0
        },
        {
          "id": 1,
          "value": 0.0
        },
        {
          "id": 2,
          "value": 0.0
        },
        {
          "id": 3,
          "value": 0.0
        },
        {
          "id": 4,
          "value": 8.08500099
        },
        {
          "id": 5,
          "value": 0.0
        },
        {
          "id": 6,
          "value": 0.0
        },
        {
          "id": 7,
          "value": 0.0
        }
      ],
      "leftModuleId": 24,
      "data": {
        "lissajous": 0,
        "external": 0
      },
      "pos": [
        150,
        1
      ]
    },
    {
      "id": 72,
      "plugin": "Instruo",
      "version": "1.1.0",
      "model": "tagh",
      "params": [
        {
          "id": 0,
          "value": 0.0
        },
        {
          "id": 1,
          "value": 0.0
        },
        {
          "id": 2,
          "value": 1.0
        },
        {
          "id": 3,
          "value": 0.0
        },
        {
          "id": 4,
          "value": 0.0
        },
        {
          "id": 5,
          "value": 0.0
        },
        {
          "id": 6,
          "value": 0.0
        }
      ],
      "rightModuleId": 60,
      "data": {
        "deviations": {
          "noiseOffset": 0.5
        }
      },
      "pos": [
        0,
        1
      ]
    },
    {
      "id": 9,
      "plugin": "trowaSoft",
      "version": "1.0.3",
      "model": "cvOSCcv",
      "params": [
        {
          "id": 0,
          "value": 0.0
        },
        {
          "id": 1,
          "value": 0.0
        },
        {
          "id": 2,
          "value": 0.0
        },
        {
          "id": 3,
          "value": 0.0
        },
        {
          "id": 4,
          "value": 0.0
        },
        {
          "id": 5,
          "value": 0.0
        },
        {
          "id": 6,
          "value": 0.0
        },
        {
          "id": 7,
          "value": 0.0
        },
        {
          "id": 8,
          "value": 1.0
        },
        {
          "id": 9,
          "value": 0.0
        },
        {
          "id": 10,
          "value": 0.0
        },
        {
          "id": 11,
          "value": 1.0
        },
        {
          "id": 12,
          "value": 0.0
        },
        {
          "id": 13,
          "value": 0.0
        },
        {
          "id": 14,
          "value": 0.0
        },
        {
          "id": 15,
          "value": 0.0
        },
        {
          "id": 16,
          "value": 0.0
        },
        {
          "id": 17,
          "value": 0.0
        },
        {
          "id": 18,
          "value": 0.0
        },
        {
          "id": 19,
          "value": 0.0
        },
        {
          "id": 20,
          "value": 0.0
        },
        {
          "id": 21,
          "value": 0.0
        },
        {
          "id": 22,
          "value": 0.0
        },
        {
          "id": 23,
          "value": 0.0
        },
        {
          "id": 24,
          "value": 0.0
        },
        {
          "id": 25,
          "value": 0.0
        },
        {
          "id": 26,
          "value": 0.0
        },
        {
          "id": 27,
          "value": 0.0
        },
        {
          "id": 28,
          "value": 0.0
        },
        {
          "id": 29,
          "value": 1.0
        },
        {
          "id": 30,
          "value": 0.0
        },
        {
          "id": 31,
          "value": 0.0
        },
        {
          "id": 32,
          "value": 0.0
        },
        {
          "id": 33,
          "value": 0.0
        },
        {
          "id": 34,
          "value": 0.0
        },
        {
          "id": 35,
          "value": 0.0
        },
        {
          "id": 36,
          "value": 0.0
        }
      ],
      "leftModuleId": 12,
      "rightModuleId": 35,
      "data": {
        "version": 17,
        "osc": {
          "IpAddress": "127.0.0.1",
          "TxPort": 7050,
          "RxPort": 7051,
          "Namespace": "",
          "AutoReconnectAtLoad": false,
          "Initialized": true
        },
        "numCh": 8,
        "inputChannels": [
          {
            "path": "/ch/1",
            "dataType": 1,
            "convertVals": 0,
            "clipVals": 0,
            "minV": -5.0,
            "maxV": 5.58333015,
            "minOSC": 0.0,
            "maxOSC": 127.0,
            "channelSensitivity": 0.0500000007
          },
          {
            "path": "/ch/2",
            "dataType": 1,
            "convertVals": 0,
            "clipVals": 0,
            "minV": -5.0,
            "maxV": 5.58333015,
            "minOSC": 0.0,
            "maxOSC": 127.0,
            "channelSensitivity": 0.0500000007
          },
          {
            "path": "/ch/3",
            "dataType": 1,
            "convertVals": 0,
            "clipVals": 0,
            "minV": -5.0,
            "maxV": 5.58333015,
            "minOSC": 0.0,
            "maxOSC": 127.0,
            "channelSensitivity": 0.0500000007
          },
          {
            "path": "/ch/4",
            "dataType": 1,
            "convertVals": 0,
            "clipVals": 0,
            "minV": -5.0,
            "maxV": 5.58333015,
            "minOSC": 0.0,
            "maxOSC": 127.0,
            "channelSensitivity": 0.0500000007
          },
          {
            "path": "/ch/5",
            "dataType": 1,
            "convertVals": 0,
            "clipVals": 0,
            "minV": -5.0,
            "maxV": 5.58333015,
            "minOSC": 0.0,
            "maxOSC": 127.0,
            "channelSensitivity": 0.0500000007
          },
          {
            "path": "/ch/6",
            "dataType": 1,
            "convertVals": 0,
            "clipVals": 0,
            "minV": -5.0,
            "maxV": 5.58333015,
            "minOSC": 0.0,
            "maxOSC": 127.0,
            "channelSensitivity": 0.0500000007
          },
          {
            "path": "/ch/7",
            "dataType": 1,
            "convertVals": 0,
            "clipVals": 0,
            "minV": -5.0,
            "maxV": 5.58333015,
            "minOSC": 0.0,
            "maxOSC": 127.0,
            "channelSensitivity": 0.0500000007
          },
          {
            "path": "/ch/8",
            "dataType": 1,
            "convertVals": 0,
            "clipVals": 0,
            "minV": -5.0,
            "maxV": 5.58333015,
            "minOSC": 0.0,
            "maxOSC": 127.0,
            "channelSensitivity": 0.0500000007
          }
        ],
        "outputChannels": [
          {
            "path": "/ch/1",
            "dataType": 1,
            "convertVals": 1,
            "clipVals": 0,
            "minV": -2.0,
            "maxV": 0.5,
            "minOSC": 0.0,
            "maxOSC": 1.0
          },
          {
            "path": "/ch/2",
            "dataType": 1,
            "convertVals": 0,
            "clipVals": 0,
            "minV": -5.0,
            "maxV": 5.58333015,
            "minOSC": 0.0,
            "maxOSC": 127.0
          },
          {
            "path": "/ch/3",
            "dataType": 1,
            "convertVals": 0,
            "clipVals": 0,
            "minV": -5.0,
            "maxV": 5.58333015,
            "minOSC": 0.0,
            "maxOSC": 127.0
          },
          {
            "path": "/ch/4",
            "dataType": 1,
            "convertVals": 0,
            "clipVals": 0,
            "minV": -5.0,
            "maxV": 5.58333015,
            "minOSC": 0.0,
            "maxOSC": 127.0
          },
          {
            "path": "/ch/5",
            "dataType": 1,
            "convertVals": 0,
            "clipVals": 0,
            "minV": -5.0,
            "maxV": 5.58333015,
            "minOSC": 0.0,
            "maxOSC": 127.0
          },
          {
            "path": "/ch/6",
            "dataType": 1,
            "convertVals": 0,
            "clipVals": 0,
            "minV": -5.0,
            "maxV": 5.58333015,
            "minOSC": 0.0,
            "maxOSC": 127.0
          },
          {
            "path": "/ch/7",
            "dataType": 1,
            "convertVals": 0,
            "clipVals": 0,
            "minV": -5.0,
            "maxV": 5.58333015,
            "minOSC": 0.0,
            "maxOSC": 127.0
          },
          {
            "path": "/ch/8",
            "dataType": 1,
            "convertVals": 0,
            "clipVals": 0,
            "minV": -5.0,
            "maxV": 5.58333015,
            "minOSC": 0.0,
            "maxOSC": 127.0
          }
        ]
      },
      "pos": [
        19,
        0
      ]
    }
  ],
  "cables": [
    {
      "id": 20,
      "outputModuleId": 25,
      "outputId": 3,
      "inputModuleId": 1,
      "inputId": 0,
      "color": "#0c8e15"
    },
    {
      "id": 21,
      "outputModuleId": 25,
      "outputId": 4,
      "inputModuleId": 1,
      "inputId": 1,
      "color": "#c91847"
    },
    {
      "id": 22,
      "outputModuleId": 27,
      "outputId": 0,
      "inputModuleId": 25,
      "inputId": 0,
      "color": "#0986ad"
    },
    {
      "id": 23,
      "outputModuleId": 27,
      "outputId": 1,
      "inputModuleId": 25,
      "inputId": 2,
      "color": "#c9b70e"
    },
    {
      "id": 24,
      "outputModuleId": 27,
      "outputId": 2,
      "inputModuleId": 25,
      "inputId": 4,
      "color": "#0c8e15"
    },
    {
      "id": 25,
      "outputModuleId": 27,
      "outputId": 3,
      "inputModuleId": 25,
      "inputId": 6,
      "color": "#c91847"
    },
    {
      "id": 30,
      "outputModuleId": 15,
      "outputId": 0,
      "inputModuleId": 27,
      "inputId": 0,
      "color": "#0986ad"
    },
    {
      "id": 39,
      "outputModuleId": 10,
      "outputId": 0,
      "inputModuleId": 27,
      "inputId": 1,
      "color": "#0c8e15"
    },
    {
      "id": 40,
      "outputModuleId": 11,
      "outputId": 0,
      "inputModuleId": 27,
      "inputId": 2,
      "color": "#c91847"
    },
    {
      "id": 41,
      "outputModuleId": 13,
      "outputId": 0,
      "inputModuleId": 27,
      "inputId": 3,
      "color": "#0986ad"
    },
    {
      "id": 61,
      "outputModuleId": 34,
      "outputId": 1,
      "inputModuleId": 37,
      "inputId": 0,
      "color": "#0c8e15"
    },
    {
      "id": 62,
      "outputModuleId": 34,
      "outputId": 4,
      "inputModuleId": 37,
      "inputId": 1,
      "color": "#c91847"
    },
    {
      "id": 70,
      "outputModuleId": 40,
      "outputId": 0,
      "inputModuleId": 27,
      "inputId": 4,
      "color": "#c9b70e"
    },
    {
      "id": 71,
      "outputModuleId": 37,
      "outputId": 0,
      "inputModuleId": 40,
      "inputId": 4,
      "color": "#0c8e15"
    },
    {
      "id": 72,
      "outputModuleId": 40,
      "outputId": 0,
      "inputModuleId": 23,
      "inputId": 0,
      "color": "#c91847"
    },
    {
      "id": 73,
      "outputModuleId": 41,
      "outputId": 0,
      "inputModuleId": 23,
      "inputId": 1,
      "color": "#0986ad"
    },
    {
      "id": 74,
      "outputModuleId": 42,
      "outputId": 0,
      "inputModuleId": 24,
      "inputId": 0,
      "color": "#c9b70e"
    },
    {
      "id": 75,
      "outputModuleId": 43,
      "outputId": 0,
      "inputModuleId": 24,
      "inputId": 1,
      "color": "#0c8e15"
    },
    {
      "id": 76,
      "outputModuleId": 34,
      "outputId": 1,
      "inputModuleId": 44,
      "inputId": 0,
      "color": "#c91847"
    },
    {
      "id": 77,
      "outputModuleId": 34,
      "outputId": 4,
      "inputModuleId": 44,
      "inputId": 1,
      "color": "#0986ad"
    },
    {
      "id": 78,
      "outputModuleId": 44,
      "outputId": 0,
      "inputModuleId": 41,
      "inputId": 4,
      "color": "#c9b70e"
    },
    {
      "id": 79,
      "outputModuleId": 41,
      "outputId": 0,
      "inputModuleId": 27,
      "inputId": 5,
      "color": "#0c8e15"
    },
    {
      "id": 80,
      "outputModuleId": 42,
      "outputId": 0,
      "inputModuleId": 27,
      "inputId": 6,
      "color": "#c91847"
    },
    {
      "id": 81,
      "outputModuleId": 43,
      "outputId": 0,
      "inputModuleId": 27,
      "inputId": 7,
      "color": "#0986ad"
    },
    {
      "id": 82,
      "outputModuleId": 34,
      "outputId": 1,
      "inputModuleId": 45,
      "inputId": 0,
      "color": "#c9b70e"
    },
    {
      "id": 83,
      "outputModuleId": 34,
      "outputId": 4,
      "inputModuleId": 45,
      "inputId": 1,
      "color": "#0c8e15"
    },
    {
      "id": 84,
      "outputModuleId": 34,
      "outputId": 1,
      "inputModuleId": 46,
      "inputId": 0,
      "color": "#c91847"
    },
    {
      "id": 85,
      "outputModuleId": 34,
      "outputId": 4,
      "inputModuleId": 46,
      "inputId": 1,
      "color": "#0986ad"
    },
    {
      "id": 86,
      "outputModuleId": 45,
      "outputId": 0,
      "inputModuleId": 42,
      "inputId": 4,
      "color": "#c9b70e"
    },
    {
      "id": 87,
      "outputModuleId": 46,
      "outputId": 0,
      "inputModuleId": 43,
      "inputId": 4,
      "color": "#0c8e15"
    },
    {
      "id": 99,
      "outputModuleId": 26,
      "outputId": 0,
      "inputModuleId": 56,
      "inputId": 2,
      "color": "#c91847"
    },
    {
      "id": 100,
      "outputModuleId": 56,
      "outputId": 0,
      "inputModuleId": 15,
      "inputId": 1,
      "color": "#0986ad"
    },
    {
      "id": 101,
      "outputModuleId": 26,
      "outputId": 1,
      "inputModuleId": 57,
      "inputId": 2,
      "color": "#0c8e15"
    },
    {
      "id": 102,
      "outputModuleId": 57,
      "outputId": 0,
      "inputModuleId": 10,
      "inputId": 1,
      "color": "#c91847"
    },
    {
      "id": 103,
      "outputModuleId": 26,
      "outputId": 2,
      "inputModuleId": 58,
      "inputId": 2,
      "color": "#0986ad"
    },
    {
      "id": 104,
      "outputModuleId": 58,
      "outputId": 0,
      "inputModuleId": 11,
      "inputId": 1,
      "color": "#c9b70e"
    },
    {
      "id": 105,
      "outputModuleId": 26,
      "outputId": 3,
      "inputModuleId": 59,
      "inputId": 2,
      "color": "#0c8e15"
    },
    {
      "id": 106,
      "outputModuleId": 59,
      "outputId": 0,
      "inputModuleId": 13,
      "inputId": 1,
      "color": "#c91847"
    },
    {
      "id": 107,
      "outputModuleId": 34,
      "outputId": 1,
      "inputModuleId": 60,
      "inputId": 0,
      "color": "#0986ad"
    },
    {
      "id": 108,
      "outputModuleId": 34,
      "outputId": 4,
      "inputModuleId": 60,
      "inputId": 1,
      "color": "#c9b70e"
    },
    {
      "id": 109,
      "outputModuleId": 60,
      "outputId": 12,
      "inputModuleId": 26,
      "inputId": 0,
      "color": "#0c8e15"
    },
    {
      "id": 110,
      "outputModuleId": 34,
      "outputId": 1,
      "inputModuleId": 61,
      "inputId": 0,
      "color": "#c91847"
    },
    {
      "id": 111,
      "outputModuleId": 34,
      "outputId": 4,
      "inputModuleId": 61,
      "inputId": 1,
      "color": "#0986ad"
    },
    {
      "id": 112,
      "outputModuleId": 61,
      "outputId": 12,
      "inputModuleId": 26,
      "inputId": 1,
      "color": "#c9b70e"
    },
    {
      "id": 117,
      "outputModuleId": 34,
      "outputId": 4,
      "inputModuleId": 63,
      "inputId": 1,
      "color": "#0c8e15"
    },
    {
      "id": 118,
      "outputModuleId": 34,
      "outputId": 1,
      "inputModuleId": 63,
      "inputId": 0,
      "color": "#c91847"
    },
    {
      "id": 119,
      "outputModuleId": 63,
      "outputId": 12,
      "inputModuleId": 26,
      "inputId": 2,
      "color": "#0986ad"
    },
    {
      "id": 120,
      "outputModuleId": 34,
      "outputId": 1,
      "inputModuleId": 64,
      "inputId": 0,
      "color": "#c9b70e"
    },
    {
      "id": 121,
      "outputModuleId": 34,
      "outputId": 4,
      "inputModuleId": 64,
      "inputId": 1,
      "color": "#0c8e15"
    },
    {
      "id": 122,
      "outputModuleId": 64,
      "outputId": 12,
      "inputModuleId": 26,
      "inputId": 3,
      "color": "#c91847"
    },
    {
      "id": 137,
      "outputModuleId": 67,
      "outputId": 0,
      "inputModuleId": 40,
      "inputId": 0,
      "color": "#0c8e15"
    },
    {
      "id": 138,
      "outputModuleId": 67,
      "outputId": 1,
      "inputModuleId": 41,
      "inputId": 0,
      "color": "#c91847"
    },
    {
      "id": 139,
      "outputModuleId": 67,
      "outputId": 2,
      "inputModuleId": 42,
      "inputId": 0,
      "color": "#0986ad"
    },
    {
      "id": 140,
      "outputModuleId": 67,
      "outputId": 3,
      "inputModuleId": 43,
      "inputId": 0,
      "color": "#c9b70e"
    },
    {
      "id": 141,
      "outputModuleId": 68,
      "outputId": 0,
      "inputModuleId": 43,
      "inputId": 2,
      "color": "#0c8e15"
    },
    {
      "id": 142,
      "outputModuleId": 68,
      "outputId": 1,
      "inputModuleId": 42,
      "inputId": 2,
      "color": "#c91847"
    },
    {
      "id": 143,
      "outputModuleId": 68,
      "outputId": 2,
      "inputModuleId": 41,
      "inputId": 2,
      "color": "#0986ad"
    },
    {
      "id": 144,
      "outputModuleId": 68,
      "outputId": 3,
      "inputModuleId": 40,
      "inputId": 2,
      "color": "#c9b70e"
    },
    {
      "id": 145,
      "outputModuleId": 69,
      "outputId": 0,
      "inputModuleId": 40,
      "inputId": 3,
      "color": "#0c8e15"
    },
    {
      "id": 146,
      "outputModuleId": 69,
      "outputId": 1,
      "inputModuleId": 41,
      "inputId": 3,
      "color": "#c91847"
    },
    {
      "id": 147,
      "outputModuleId": 69,
      "outputId": 2,
      "inputModuleId": 42,
      "inputId": 3,
      "color": "#0986ad"
    },
    {
      "id": 148,
      "outputModuleId": 69,
      "outputId": 3,
      "inputModuleId": 43,
      "inputId": 3,
      "color": "#c9b70e"
    },
    {
      "id": 116,
      "outputModuleId": 70,
      "outputId": 0,
      "inputModuleId": 26,
      "inputId": 7,
      "color": "#c9b70e"
    },
    {
      "id": 115,
      "outputModuleId": 70,
      "outputId": 0,
      "inputModuleId": 26,
      "inputId": 6,
      "color": "#0986ad"
    },
    {
      "id": 114,
      "outputModuleId": 70,
      "outputId": 0,
      "inputModuleId": 26,
      "inputId": 5,
      "color": "#c91847"
    },
    {
      "id": 113,
      "outputModuleId": 70,
      "outputId": 0,
      "inputModuleId": 26,
      "inputId": 4,
      "color": "#0c8e15"
    },
    {
      "id": 149,
      "outputModuleId": 62,
      "outputId": 0,
      "inputModuleId": 70,
      "inputId": 1,
      "color": "#0c8e15"
    },
    {
      "id": 152,
      "outputModuleId": 35,
      "outputId": 1,
      "inputModuleId": 70,
      "inputId": 0,
      "color": "#c9b70e"
    },
    {
      "id": 153,
      "outputModuleId": 17,
      "outputId": 0,
      "inputModuleId": 25,
      "inputId": 8,
      "color": "#0c8e15"
    },
    {
      "id": 42,
      "outputModuleId": 9,
      "outputId": 1,
      "inputModuleId": 34,
      "inputId": 6,
      "color": "#0c8e15"
    },
    {
      "id": 155,
      "outputModuleId": 9,
      "outputId": 0,
      "inputModuleId": 72,
      "inputId": 1,
      "color": "#c9b70e"
    },
    {
      "id": 159,
      "outputModuleId": 9,
      "outputId": 1,
      "inputModuleId": 12,
      "inputId": 0,
      "color": "#c9b70e"
    },
    {
      "id": 160,
      "outputModuleId": 9,
      "outputId": 5,
      "inputModuleId": 12,
      "inputId": 1,
      "color": "#0c8e15"
    }
  ]
}